<svg xmlns="http://www.w3.org/2000/svg" width="1180" height="610" viewBox="0 0 1180 610">

    <defs>
      <linearGradient id="accent" x1="0" y1="0" x2="1" y2="0">
        <stop offset="0" stop-color="#6D28D9"><animate attributeName="stop-color" values="#6D28D9;#0891B2;#047857;#6D28D9" dur="10s" repeatCount="indefinite"/></stop>
        <stop offset="0.5" stop-color="#0891B2"><animate attributeName="stop-color" values="#0891B2;#047857;#6D28D9;#0891B2" dur="10s" repeatCount="indefinite"/></stop>
        <stop offset="1" stop-color="#047857"><animate attributeName="stop-color" values="#047857;#6D28D9;#0891B2;#047857" dur="10s" repeatCount="indefinite"/></stop>
      </linearGradient>
      <linearGradient id="panelGrad" x1="0" y1="0" x2="0" y2="1"><stop offset="0" stop-color="#F8FBFF"/><stop offset="1" stop-color="#F5F3FF"/></linearGradient>
      <filter id="glow8" x="-60%" y="-60%" width="220%" height="220%"><feGaussianBlur stdDeviation="8"/></filter>
      <filter id="glow3" x="-60%" y="-60%" width="220%" height="220%"><feGaussianBlur stdDeviation="3"/></filter>
      <clipPath id="winClip"><rect x="2" y="2" width="1176" height="606" rx="18"/></clipPath>
    </defs>
    
    <rect x="2" y="2" width="1176" height="606" rx="18" fill="#070B16"/>
    <g clip-path="url(#winClip)">
      <rect x="2" y="2" width="1176" height="606" fill="url(#panelGrad)"/>
      <rect x="2" y="2" width="1176" height="46" fill="#0B1222"/>
      <line x1="2" y1="48" x2="1178" y2="48" stroke="rgba(255,255,255,0.10)"/>
      
      <circle cx="30" cy="25.0" r="5.5" fill="#ff5f56"/>
      <circle cx="50" cy="25.0" r="5.5" fill="#ffbd2e"/>
      <circle cx="70" cy="25.0" r="5.5" fill="#27c93f"/>
      
      <text x="590.0" y="29.0" text-anchor="middle" font-family="monospace" font-size="12" fill="#64748B">user@github.local - % ./profile.sh --live</text>
      
      <text x="38" y="74" font-family="monospace" font-size="10" letter-spacing="3" fill="#475569">VISUAL.MAP</text>
      <rect x="36" y="84" width="400" height="492" rx="10" fill="none" stroke="#0891B2" stroke-width="2" opacity="0.45" filter="url(#glow3)"/>
      <rect x="36" y="84" width="400" height="492" rx="10" fill="#F8FBFF" stroke="rgba(34,211,238,0.35)"/>
    
<g transform="translate(46, 96) scale(2.3, 2.3)" fill="#6D28D9" shape-rendering="crispEdges">
<g opacity="0"><animate attributeName="opacity" values="0;1" dur="0.9s" begin="1.33s" fill="freeze" calcMode="spline" keyTimes="0;1" keySplines=".4 0 .2 1"/><path d="M2,2h1 M79,3h1 M8,5h1 M48,7h1 M129,8h1 M30,11h1 M122,12h1 M143,14h1 M128,16h1 M39,19h1 M129,20h1 M75,23h1 M8,25h1 M73,27h1 M138,29h1 M17,32h1 M83,34h1 M95,36h1 M135,38h1 M103,41h1 M83,43h1 M134,45h1 M48,48h1 M147,49h1 M84,52h1 M72,55h1 M72,56h1 M70,57h1 M65,58h1 M134,58h1 M74,59h1 M58,60h1 M78,60h1 M61,61h1 M81,61h1 M59,62h1 M79,62h1 M56,63h1 M76,63h1 M8,64h1 M69,64h1 M89,64h1 M64,65h1 M84,65h1 M55,66h1 M75,66h1 M3,67h1 M70,67h1 M90,67h1 M60,68h1 M80,68h1 M52,69h1 M72,69h1 M92,69h1 M60,70h1 M81,70h1 M50,71h1 M73,71h1 M93,71h1 M60,72h1 M85,72h1 M52,73h1 M79,73h1 M145,73h1 M72,74h1 M94,74h1 M55,75h1 M94,75h1 M84,76h1 M48,77h1 M29,78h1 M95,78h1 M60,79h1 M38,80h1 M102,80h1 M67,81h1 M39,82h1 M9,83h1 M72,83h1 M60,84h1 M47,85h1 M6,86h1 M61,86h1 M126,86h1 M55,87h1 M83,87h1 M42,88h1 M67,88h1 M101,88h1 M63,89h1 M14,90h1 M59,90h1 M125,90h1 M58,91h1 M85,91h1 M46,92h1 M79,92h1 M35,93h1 M69,93h1 M20,94h1 M76,94h1 M44,95h1 M87,95h1 M47,96h1 M93,96h1 M48,97h1 M30,98h1 M103,98h1 M48,99h1 M21,100h1 M80,100h1 M46,101h1 M25,102h1 M66,102h1 M41,103h1 M143,103h1 M58,104h1 M33,105h1 M85,105h1 M54,106h1 M2,107h1 M52,107h1 M87,107h1 M48,108h1 M123,108h1 M56,109h1 M29,110h1 M65,110h1 M42,111h1 M74,111h1 M24,112h1 M61,112h1 M35,113h1 M69,113h1 M14,114h1 M53,114h1 M78,114h1 M50,115h1 M73,115h1 M21,116h1 M58,116h1 M26,117h1 M65,117h1 M27,118h1 M63,118h1 M33,119h1 M69,119h1 M10,120h1 M55,120h1 M88,120h1 M46,121h1 M84,121h1 M31,122h1 M62,122h1 M23,123h1 M56,123h1 M101,123h1 M43,124h1 M81,124h1 M29,125h1 M57,125h1 M92,125h1 M38,126h1 M60,126h1 M95,126h1 M44,127h1 M66,127h1 M98,127h1 M38,128h1 M59,128h1 M86,128h1 M15,129h1 M47,129h1 M68,129h1 M94,129h1 M26,130h1 M51,130h1 M72,130h1 M101,130h1 M37,131h1 M57,131h1 M84,131h1 M104,131h1 M36,132h1 M56,132h1 M88,132h1 M121,132h1 M42,133h1 M62,133h1 M92,133h1 M145,133h1 M41,134h1 M61,134h1 M90,134h1 M110,134h1 M35,135h1 M55,135h1 M83,135h1 M103,135h1 M29,136h1 M49,136h1 M71,136h1 M96,136h1 M1,137h1 M36,137h1 M56,137h1 M82,137h1 M102,137h1 M23,138h1 M43,138h1 M64,138h1 M92,138h1 M112,138h1 M28,139h1 M48,139h1 M71,139h1 M95,139h1 M115,139h1 M31,140h1 M51,140h1 M82,140h1 M102,140h1 M1,141h1 M35,141h1 M55,141h1 M83,141h1 M103,141h1 M147,141h1 M35,142h1 M55,142h1 M85,142h1 M105,142h1 M3,143h1 M34,143h1 M54,143h1 M82,143h1 M102,143h1 M122,143h1 M31,144h1 M51,144h1 M81,144h1 M102,144h1 M122,144h1 M27,145h1 M47,145h1 M78,145h1 M99,145h1 M119,145h1 M23,146h1 M43,146h1 M63,146h1 M92,146h1 M112,146h1 M15,147h1 M35,147h1 M55,147h1 M83,147h1 M103,147h1 M123,147h1 M24,148h1 M44,148h1 M64,148h1 M91,148h1 M111,148h1 M9,149h1 M30,149h1 M50,149h1 M75,149h1 M95,149h1 M115,149h1 M16,150h1 M36,150h1 M56,150h1 M80,150h1 M100,150h1 M120,150h1 M19,151h1 M39,151h1 M59,151h1 M80,151h1 M100,151h1 M121,151h1 M19,152h1 M39,152h1 M59,152h1 M79,152h1 M99,152h1 M119,152h1 M14,153h1 M34,153h1 M54,153h1 M74,153h1 M94,153h1 M114,153h1 M8,154h1 M30,154h1 M50,154h1 M70,154h1 M90,154h1 M110,154h1 M1,155h1 M26,155h1 M46,155h1 M66,155h1 M86,155h1 M106,155h1 M126,155h1 M21,156h1 M41,156h1 M61,156h1 M81,156h1 M102,156h1 M122,156h1 M15,157h1 M35,157h1 M55,157h1 M75,157h1 M96,157h1 M117,157h1 M9,158h1 M30,158h1 M50,158h1 M70,158h1 M90,158h1 M110,158h1 M130,158h1 M23,159h1 M43,159h1 M63,159h1 M83,159h1 M103,159h1 M123,159h1 M14,160h1 M34,160h1 M54,160h1 M74,160h1 M94,160h1 M114,160h1 M3,161h1 M26,161h1 M46,161h1 M66,161h1 M86,161h1 M106,161h1 M126,161h1 M18,162h1 M38,162h1 M58,162h1 M78,162h1 M98,162h1 M118,162h1 M4,163h1 M26,163h1 M46,163h1 M66,163h1 M86,163h1 M107,163h1 M127,163h1 M18,164h1 M38,164h1 M58,164h1 M78,164h1 M98,164h1 M119,164h1 M8,165h1 M29,165h1 M49,165h1 M69,165h1 M89,165h1 M109,165h1 M129,165h1 M16,166h1 M36,166h1 M56,166h1 M76,166h1 M97,166h1 M117,166h1 M5,167h1 M27,167h1 M47,167h1 M67,167h1 M88,167h1 M108,167h1 M128,167h1 M16,168h1 M36,168h1 M56,168h1 M76,168h1 M96,168h1 M116,168h1 M143,168h1 M22,169h1 M42,169h1 M62,169h1 M82,169h1 M102,169h1 M123,169h1" stroke="currentColor" stroke-width="1"/></g>
<g opacity="0"><animate attributeName="opacity" values="0;1" dur="0.9s" begin="0.17s" fill="freeze" calcMode="spline" keyTimes="0;1" keySplines=".4 0 .2 1"/><path d="M5,2h1 M83,3h1 M89,5h1 M54,7h1 M16,9h1 M36,11h1 M127,12h1 M9,15h1 M132,16h1 M69,19h1 M32,21h1 M84,23h1 M30,25h1 M88,27h1 M12,30h1 M35,32h1 M103,34h1 M113,36h1 M139,38h1 M113,41h1 M87,43h1 M43,46h1 M73,48h1 M7,50h1 M114,52h1 M93,55h1 M73,56h1 M71,57h1 M66,58h1 M2,59h1 M75,59h1 M59,60h1 M79,60h1 M62,61h1 M82,61h1 M60,62h1 M80,62h1 M57,63h1 M77,63h1 M43,64h1 M70,64h1 M90,64h1 M65,65h1 M85,65h1 M56,66h1 M76,66h1 M27,67h1 M71,67h1 M91,67h1 M61,68h1 M81,68h1 M53,69h1 M73,69h1 M93,69h1 M61,70h1 M82,70h1 M51,71h1 M74,71h1 M94,71h1 M63,72h1 M86,72h1 M53,73h1 M80,73h1 M32,74h1 M73,74h1 M95,74h1 M56,75h1 M95,75h1 M85,76h1 M49,77h1 M34,78h1 M96,78h1 M63,79h1 M41,80h1 M109,80h1 M70,81h1 M42,82h1 M25,83h1 M75,83h1 M66,84h1 M48,85h1 M16,86h1 M62,86h1 M133,86h1 M56,87h1 M84,87h1 M44,88h1 M69,88h1 M112,88h1 M64,89h1 M26,90h1 M62,90h1 M138,90h1 M59,91h1 M86,91h1 M48,92h1 M80,92h1 M37,93h1 M73,93h1 M30,94h1 M78,94h1 M45,95h1 M95,95h1 M48,96h1 M95,96h1 M49,97h1 M34,98h1 M115,98h1 M50,99h1 M25,100h1 M89,100h1 M48,101h1 M28,102h1 M68,102h1 M43,103h1 M7,104h1 M63,104h1 M36,105h1 M93,105h1 M58,106h1 M5,107h1 M53,107h1 M92,107h1 M49,108h1 M138,108h1 M58,109h1 M31,110h1 M66,110h1 M45,111h1 M75,111h1 M26,112h1 M62,112h1 M37,113h1 M72,113h1 M17,114h1 M55,114h1 M79,114h1 M52,115h1 M74,115h1 M23,116h1 M61,116h1 M29,117h1 M66,117h1 M30,118h1 M65,118h1 M35,119h1 M70,119h1 M13,120h1 M56,120h1 M89,120h1 M48,121h1 M85,121h1 M33,122h1 M63,122h1 M25,123h1 M57,123h1 M115,123h1 M44,124h1 M82,124h1 M31,125h1 M58,125h1 M93,125h1 M39,126h1 M62,126h1 M96,126h1 M45,127h1 M68,127h1 M110,127h1 M40,128h1 M60,128h1 M87,128h1 M17,129h1 M48,129h1 M69,129h1 M95,129h1 M28,130h1 M52,130h1 M73,130h1 M102,130h1 M38,131h1 M58,131h1 M85,131h1 M105,131h1 M37,132h1 M57,132h1 M89,132h1 M132,132h1 M43,133h1 M63,133h1 M93,133h1 M5,134h1 M42,134h1 M62,134h1 M91,134h1 M111,134h1 M36,135h1 M56,135h1 M84,135h1 M104,135h1 M30,136h1 M50,136h1 M73,136h1 M97,136h1 M3,137h1 M37,137h1 M57,137h1 M83,137h1 M103,137h1 M24,138h1 M44,138h1 M66,138h1 M93,138h1 M113,138h1 M29,139h1 M49,139h1 M73,139h1 M96,139h1 M116,139h1 M32,140h1 M52,140h1 M83,140h1 M103,140h1 M3,141h1 M36,141h1 M56,141h1 M84,141h1 M104,141h1 M5,142h1 M36,142h1 M56,142h1 M86,142h1 M106,142h1 M8,143h1 M35,143h1 M55,143h1 M83,143h1 M103,143h1 M141,143h1 M32,144h1 M52,144h1 M82,144h1 M103,144h1 M123,144h1 M28,145h1 M48,145h1 M79,145h1 M100,145h1 M120,145h1 M24,146h1 M44,146h1 M64,146h1 M93,146h1 M113,146h1 M16,147h1 M36,147h1 M56,147h1 M84,147h1 M104,147h1 M124,147h1 M25,148h1 M45,148h1 M65,148h1 M92,148h1 M112,148h1 M10,149h1 M31,149h1 M51,149h1 M76,149h1 M96,149h1 M116,149h1 M17,150h1 M37,150h1 M57,150h1 M81,150h1 M101,150h1 M121,150h1 M20,151h1 M40,151h1 M60,151h1 M81,151h1 M102,151h1 M122,151h1 M20,152h1 M40,152h1 M60,152h1 M80,152h1 M100,152h1 M120,152h1 M15,153h1 M35,153h1 M55,153h1 M75,153h1 M95,153h1 M115,153h1 M9,154h1 M31,154h1 M51,154h1 M71,154h1 M91,154h1 M111,154h1 M4,155h1 M27,155h1 M47,155h1 M67,155h1 M87,155h1 M107,155h1 M127,155h1 M22,156h1 M42,156h1 M62,156h1 M82,156h1 M103,156h1 M123,156h1 M16,157h1 M36,157h1 M56,157h1 M76,157h1 M97,157h1 M118,157h1 M10,158h1 M31,158h1 M51,158h1 M71,158h1 M91,158h1 M111,158h1 M134,158h1 M24,159h1 M44,159h1 M64,159h1 M84,159h1 M104,159h1 M124,159h1 M15,160h1 M35,160h1 M55,160h1 M75,160h1 M95,160h1 M115,160h1 M5,161h1 M27,161h1 M47,161h1 M67,161h1 M87,161h1 M107,161h1 M127,161h1 M19,162h1 M39,162h1 M59,162h1 M79,162h1 M99,162h1 M119,162h1 M6,163h1 M27,163h1 M47,163h1 M67,163h1 M87,163h1 M108,163h1 M128,163h1 M19,164h1 M39,164h1 M59,164h1 M79,164h1 M99,164h1 M120,164h1 M10,165h1 M30,165h1 M50,165h1 M70,165h1 M90,165h1 M110,165h1 M130,165h1 M17,166h1 M37,166h1 M57,166h1 M77,166h1 M98,166h1 M118,166h1 M7,167h1 M28,167h1 M48,167h1 M68,167h1 M89,167h1 M109,167h1 M129,167h1 M17,168h1 M37,168h1 M57,168h1 M77,168h1 M97,168h1 M117,168h1 M148,168h1 M23,169h1 M43,169h1 M63,169h1 M83,169h1 M103,169h1 M124,169h1" stroke="currentColor" stroke-width="1"/></g>
<g opacity="0"><animate attributeName="opacity" values="0;1" dur="0.9s" begin="0.99s" fill="freeze" calcMode="spline" keyTimes="0;1" keySplines=".4 0 .2 1"/><path d="M8,2h1 M87,3h1 M127,5h1 M63,7h1 M24,9h1 M52,11h1 M131,12h1 M37,15h1 M3,17h1 M84,19h1 M58,21h1 M88,23h1 M34,25h1 M121,27h1 M24,30h1 M89,32h1 M110,34h1 M146,36h1 M24,39h1 M122,41h1 M143,43h1 M60,46h1 M80,48h1 M16,51h1 M123,52h1 M102,55h1 M74,56h1 M72,57h1 M67,58h1 M33,59h1 M76,59h1 M60,60h1 M80,60h1 M63,61h1 M83,61h1 M61,62h1 M81,62h1 M58,63h1 M78,63h1 M51,64h1 M71,64h1 M101,64h1 M66,65h1 M86,65h1 M57,66h1 M77,66h1 M52,67h1 M72,67h1 M92,67h1 M62,68h1 M82,68h1 M54,69h1 M74,69h1 M94,69h1 M62,70h1 M83,70h1 M52,71h1 M75,71h1 M95,71h1 M64,72h1 M87,72h1 M54,73h1 M81,73h1 M37,74h1 M74,74h1 M96,74h1 M57,75h1 M96,75h1 M88,76h1 M50,77h1 M40,78h1 M120,78h1 M65,79h1 M43,80h1 M117,80h1 M72,81h1 M44,82h1 M29,83h1 M84,83h1 M91,84h1 M49,85h1 M31,86h1 M63,86h1 M140,86h1 M57,87h1 M85,87h1 M45,88h1 M72,88h1 M130,88h1 M65,89h1 M29,90h1 M63,90h1 M2,91h1 M60,91h1 M88,91h1 M49,92h1 M81,92h1 M40,93h1 M76,93h1 M34,94h1 M80,94h1 M47,95h1 M96,95h1 M50,96h1 M99,96h1 M51,97h1 M36,98h1 M122,98h1 M52,99h1 M27,100h1 M92,100h1 M50,101h1 M32,102h1 M75,102h1 M45,103h1 M11,104h1 M64,104h1 M38,105h1 M96,105h1 M62,106h1 M8,107h1 M55,107h1 M94,107h1 M51,108h1 M148,108h1 M64,109h1 M33,110h1 M68,110h1 M46,111h1 M76,111h1 M29,112h1 M63,112h1 M39,113h1 M74,113h1 M20,114h1 M57,114h1 M80,114h1 M54,115h1 M75,115h1 M25,116h1 M62,116h1 M31,117h1 M68,117h1 M33,118h1 M67,118h1 M37,119h1 M71,119h1 M19,120h1 M57,120h1 M90,120h1 M50,121h1 M88,121h1 M35,122h1 M65,122h1 M28,123h1 M59,123h1 M118,123h1 M45,124h1 M87,124h1 M33,125h1 M59,125h1 M94,125h1 M40,126h1 M63,126h1 M140,126h1 M46,127h1 M70,127h1 M115,127h1 M41,128h1 M61,128h1 M88,128h1 M22,129h1 M49,129h1 M70,129h1 M96,129h1 M30,130h1 M53,130h1 M74,130h1 M103,130h1 M39,131h1 M59,131h1 M86,131h1 M115,131h1 M38,132h1 M58,132h1 M90,132h1 M3,133h1 M44,133h1 M64,133h1 M94,133h1 M7,134h1 M43,134h1 M63,134h1 M92,134h1 M119,134h1 M37,135h1 M57,135h1 M85,135h1 M105,135h1 M31,136h1 M51,136h1 M75,136h1 M98,136h1 M9,137h1 M38,137h1 M58,137h1 M84,137h1 M104,137h1 M25,138h1 M45,138h1 M68,138h1 M94,138h1 M114,138h1 M30,139h1 M50,139h1 M75,139h1 M97,139h1 M117,139h1 M33,140h1 M53,140h1 M84,140h1 M104,140h1 M7,141h1 M37,141h1 M57,141h1 M85,141h1 M105,141h1 M17,142h1 M37,142h1 M57,142h1 M87,142h1 M107,142h1 M11,143h1 M36,143h1 M56,143h1 M84,143h1 M104,143h1 M4,144h1 M33,144h1 M53,144h1 M83,144h1 M104,144h1 M133,144h1 M29,145h1 M49,145h1 M80,145h1 M101,145h1 M121,145h1 M25,146h1 M45,146h1 M65,146h1 M94,146h1 M114,146h1 M17,147h1 M37,147h1 M57,147h1 M85,147h1 M105,147h1 M125,147h1 M26,148h1 M46,148h1 M66,148h1 M93,148h1 M113,148h1 M11,149h1 M32,149h1 M52,149h1 M77,149h1 M97,149h1 M117,149h1 M18,150h1 M38,150h1 M58,150h1 M82,150h1 M102,150h1 M122,150h1 M21,151h1 M41,151h1 M61,151h1 M82,151h1 M103,151h1 M123,151h1 M21,152h1 M41,152h1 M61,152h1 M81,152h1 M101,152h1 M121,152h1 M16,153h1 M36,153h1 M56,153h1 M76,153h1 M96,153h1 M116,153h1 M11,154h1 M32,154h1 M52,154h1 M72,154h1 M92,154h1 M112,154h1 M6,155h1 M28,155h1 M48,155h1 M68,155h1 M88,155h1 M108,155h1 M128,155h1 M23,156h1 M43,156h1 M63,156h1 M83,156h1 M104,156h1 M124,156h1 M17,157h1 M37,157h1 M57,157h1 M77,157h1 M98,157h1 M119,157h1 M12,158h1 M32,158h1 M52,158h1 M72,158h1 M92,158h1 M112,158h1 M137,158h1 M25,159h1 M45,159h1 M65,159h1 M85,159h1 M105,159h1 M125,159h1 M16,160h1 M36,160h1 M56,160h1 M76,160h1 M96,160h1 M116,160h1 M6,161h1 M28,161h1 M48,161h1 M68,161h1 M88,161h1 M108,161h1 M128,161h1 M20,162h1 M40,162h1 M60,162h1 M80,162h1 M100,162h1 M120,162h1 M7,163h1 M28,163h1 M48,163h1 M68,163h1 M88,163h1 M109,163h1 M129,163h1 M20,164h1 M40,164h1 M60,164h1 M80,164h1 M100,164h1 M121,164h1 M11,165h1 M31,165h1 M51,165h1 M71,165h1 M91,165h1 M111,165h1 M131,165h1 M18,166h1 M38,166h1 M58,166h1 M78,166h1 M99,166h1 M119,166h1 M9,167h1 M29,167h1 M49,167h1 M69,167h1 M90,167h1 M110,167h1 M130,167h1 M18,168h1 M38,168h1 M58,168h1 M78,168h1 M98,168h1 M118,168h1 M1,169h1 M24,169h1 M44,169h1 M64,169h1 M84,169h1 M104,169h1 M125,169h1" stroke="currentColor" stroke-width="1"/></g>
<g opacity="0"><animate attributeName="opacity" values="0;1" dur="0.9s" begin="0.85s" fill="freeze" calcMode="spline" keyTimes="0;1" keySplines=".4 0 .2 1"/><path d="M13,3h1 M92,3h1 M18,6h1 M66,7h1 M34,9h1 M57,11h1 M1,13h1 M76,15h1 M14,17h1 M99,19h1 M72,21h1 M98,23h1 M70,25h1 M134,27h1 M32,30h1 M94,32h1 M137,34h1 M5,37h1 M61,39h1 M132,41h1 M31,44h1 M66,46h1 M83,48h1 M30,51h1 M128,52h1 M106,55h1 M75,56h1 M73,57h1 M68,58h1 M57,59h1 M77,59h1 M61,60h1 M81,60h1 M64,61h1 M84,61h1 M62,62h1 M82,62h1 M59,63h1 M79,63h1 M52,64h1 M72,64h1 M134,64h1 M67,65h1 M87,65h1 M58,66h1 M78,66h1 M53,67h1 M73,67h1 M104,67h1 M63,68h1 M83,68h1 M55,69h1 M75,69h1 M123,69h1 M63,70h1 M84,70h1 M53,71h1 M76,71h1 M103,71h1 M65,72h1 M88,72h1 M55,73h1 M82,73h1 M41,74h1 M75,74h1 M105,74h1 M59,75h1 M118,75h1 M89,76h1 M51,77h1 M42,78h1 M129,78h1 M68,79h1 M45,80h1 M145,80h1 M74,81h1 M45,82h1 M34,83h1 M87,83h1 M93,84h1 M50,85h1 M34,86h1 M66,86h1 M4,87h1 M58,87h1 M86,87h1 M46,88h1 M74,88h1 M7,89h1 M66,89h1 M31,90h1 M64,90h1 M5,91h1 M61,91h1 M93,91h1 M51,92h1 M82,92h1 M43,93h1 M77,93h1 M37,94h1 M81,94h1 M48,95h1 M102,95h1 M52,96h1 M107,96h1 M55,97h1 M39,98h1 M128,98h1 M56,99h1 M32,100h1 M94,100h1 M52,101h1 M34,102h1 M89,102h1 M46,103h1 M16,104h1 M65,104h1 M40,105h1 M99,105h1 M63,106h1 M10,107h1 M57,107h1 M105,107h1 M54,108h1 M1,109h1 M66,109h1 M35,110h1 M71,110h1 M48,111h1 M77,111h1 M31,112h1 M64,112h1 M41,113h1 M76,113h1 M22,114h1 M58,114h1 M81,114h1 M56,115h1 M77,115h1 M28,116h1 M63,116h1 M33,117h1 M70,117h1 M36,118h1 M74,118h1 M40,119h1 M72,119h1 M23,120h1 M58,120h1 M107,120h1 M51,121h1 M89,121h1 M37,122h1 M67,122h1 M30,123h1 M60,123h1 M146,123h1 M47,124h1 M88,124h1 M35,125h1 M60,125h1 M112,125h1 M42,126h1 M64,126h1 M0,127h1 M47,127h1 M71,127h1 M118,127h1 M42,128h1 M62,128h1 M89,128h1 M24,129h1 M50,129h1 M71,129h1 M97,129h1 M32,130h1 M54,130h1 M81,130h1 M104,130h1 M40,131h1 M60,131h1 M87,131h1 M128,131h1 M39,132h1 M59,132h1 M91,132h1 M15,133h1 M45,133h1 M65,133h1 M95,133h1 M10,134h1 M44,134h1 M64,134h1 M93,134h1 M129,134h1 M38,135h1 M58,135h1 M86,135h1 M106,135h1 M32,136h1 M52,136h1 M78,136h1 M99,136h1 M11,137h1 M39,137h1 M59,137h1 M85,137h1 M105,137h1 M26,138h1 M46,138h1 M69,138h1 M95,138h1 M115,138h1 M31,139h1 M51,139h1 M77,139h1 M98,139h1 M118,139h1 M34,140h1 M54,140h1 M85,140h1 M105,140h1 M10,141h1 M38,141h1 M58,141h1 M86,141h1 M106,141h1 M18,142h1 M38,142h1 M58,142h1 M88,142h1 M108,142h1 M16,143h1 M37,143h1 M57,143h1 M85,143h1 M105,143h1 M13,144h1 M34,144h1 M54,144h1 M84,144h1 M105,144h1 M136,144h1 M30,145h1 M50,145h1 M81,145h1 M102,145h1 M122,145h1 M26,146h1 M46,146h1 M75,146h1 M95,146h1 M115,146h1 M18,147h1 M38,147h1 M58,147h1 M86,147h1 M106,147h1 M136,147h1 M27,148h1 M47,148h1 M67,148h1 M94,148h1 M114,148h1 M13,149h1 M33,149h1 M53,149h1 M78,149h1 M98,149h1 M118,149h1 M19,150h1 M39,150h1 M59,150h1 M83,150h1 M103,150h1 M123,150h1 M22,151h1 M42,151h1 M62,151h1 M83,151h1 M104,151h1 M124,151h1 M22,152h1 M42,152h1 M62,152h1 M82,152h1 M102,152h1 M122,152h1 M17,153h1 M37,153h1 M57,153h1 M77,153h1 M97,153h1 M117,153h1 M13,154h1 M33,154h1 M53,154h1 M73,154h1 M93,154h1 M113,154h1 M7,155h1 M29,155h1 M49,155h1 M69,155h1 M89,155h1 M109,155h1 M129,155h1 M24,156h1 M44,156h1 M64,156h1 M84,156h1 M105,156h1 M125,156h1 M18,157h1 M38,157h1 M58,157h1 M78,157h1 M99,157h1 M120,157h1 M13,158h1 M33,158h1 M53,158h1 M73,158h1 M93,158h1 M113,158h1 M142,158h1 M26,159h1 M46,159h1 M66,159h1 M86,159h1 M106,159h1 M126,159h1 M17,160h1 M37,160h1 M57,160h1 M77,160h1 M97,160h1 M117,160h1 M7,161h1 M29,161h1 M49,161h1 M69,161h1 M89,161h1 M109,161h1 M129,161h1 M21,162h1 M41,162h1 M61,162h1 M81,162h1 M101,162h1 M121,162h1 M9,163h1 M29,163h1 M49,163h1 M69,163h1 M89,163h1 M110,163h1 M130,163h1 M21,164h1 M41,164h1 M61,164h1 M81,164h1 M101,164h1 M122,164h1 M12,165h1 M32,165h1 M52,165h1 M72,165h1 M92,165h1 M112,165h1 M132,165h1 M19,166h1 M39,166h1 M59,166h1 M79,166h1 M100,166h1 M120,166h1 M10,167h1 M30,167h1 M50,167h1 M70,167h1 M91,167h1 M111,167h1 M131,167h1 M19,168h1 M39,168h1 M59,168h1 M79,168h1 M99,168h1 M119,168h1 M2,169h1 M25,169h1 M45,169h1 M65,169h1 M85,169h1 M105,169h1 M126,169h1" stroke="currentColor" stroke-width="1"/></g>
<g opacity="0"><animate attributeName="opacity" values="0;1" dur="0.9s" begin="0.86s" fill="freeze" calcMode="spline" keyTimes="0;1" keySplines=".4 0 .2 1"/><path d="M16,3h1 M96,3h1 M22,6h1 M73,7h1 M60,9h1 M65,11h1 M13,13h1 M84,15h1 M22,17h1 M104,19h1 M120,21h1 M106,23h1 M78,25h1 M20,28h1 M45,30h1 M124,32h1 M7,35h1 M12,37h1 M72,39h1 M147,41h1 M40,44h1 M70,46h1 M117,48h1 M45,51h1 M6,53h1 M121,55h1 M112,56h1 M74,57h1 M69,58h1 M58,59h1 M78,59h1 M62,60h1 M82,60h1 M65,61h1 M85,61h1 M63,62h1 M83,62h1 M60,63h1 M80,63h1 M53,64h1 M73,64h1 M146,64h1 M68,65h1 M88,65h1 M59,66h1 M79,66h1 M54,67h1 M74,67h1 M108,67h1 M64,68h1 M84,68h1 M56,69h1 M76,69h1 M147,69h1 M65,70h1 M85,70h1 M54,71h1 M77,71h1 M107,71h1 M67,72h1 M89,72h1 M56,73h1 M83,73h1 M46,74h1 M76,74h1 M110,74h1 M62,75h1 M139,75h1 M90,76h1 M56,77h1 M44,78h1 M1,79h1 M72,79h1 M47,80h1 M13,81h1 M76,81h1 M47,82h1 M36,83h1 M93,83h1 M94,84h1 M53,85h1 M36,86h1 M68,86h1 M9,87h1 M59,87h1 M87,87h1 M48,88h1 M75,88h1 M24,89h1 M67,89h1 M34,90h1 M65,90h1 M17,91h1 M63,91h1 M99,91h1 M53,92h1 M83,92h1 M45,93h1 M80,93h1 M39,94h1 M85,94h1 M49,95h1 M113,95h1 M54,96h1 M137,96h1 M57,97h1 M41,98h1 M133,98h1 M61,99h1 M35,100h1 M125,100h1 M56,101h1 M36,102h1 M91,102h1 M48,103h1 M18,104h1 M66,104h1 M42,105h1 M113,105h1 M64,106h1 M13,107h1 M62,107h1 M117,107h1 M59,108h1 M4,109h1 M67,109h1 M37,110h1 M73,110h1 M50,111h1 M78,111h1 M33,112h1 M70,112h1 M43,113h1 M78,113h1 M24,114h1 M59,114h1 M87,114h1 M57,115h1 M78,115h1 M30,116h1 M74,116h1 M35,117h1 M72,117h1 M37,118h1 M76,118h1 M43,119h1 M73,119h1 M26,120h1 M59,120h1 M113,120h1 M53,121h1 M90,121h1 M39,122h1 M69,122h1 M32,123h1 M61,123h1 M5,124h1 M48,124h1 M89,124h1 M37,125h1 M61,125h1 M121,125h1 M44,126h1 M66,126h1 M3,127h1 M48,127h1 M73,127h1 M127,127h1 M43,128h1 M63,128h1 M90,128h1 M26,129h1 M51,129h1 M72,129h1 M98,129h1 M34,130h1 M55,130h1 M85,130h1 M112,130h1 M41,131h1 M61,131h1 M88,131h1 M136,131h1 M40,132h1 M60,132h1 M92,132h1 M18,133h1 M46,133h1 M66,133h1 M96,133h1 M13,134h1 M45,134h1 M65,134h1 M94,134h1 M148,134h1 M39,135h1 M59,135h1 M87,135h1 M107,135h1 M33,136h1 M53,136h1 M80,136h1 M100,136h1 M13,137h1 M40,137h1 M60,137h1 M86,137h1 M106,137h1 M27,138h1 M47,138h1 M71,138h1 M96,138h1 M116,138h1 M32,139h1 M52,139h1 M78,139h1 M99,139h1 M124,139h1 M35,140h1 M55,140h1 M86,140h1 M106,140h1 M13,141h1 M39,141h1 M59,141h1 M87,141h1 M107,141h1 M19,142h1 M39,142h1 M59,142h1 M89,142h1 M109,142h1 M17,143h1 M38,143h1 M58,143h1 M86,143h1 M106,143h1 M14,144h1 M35,144h1 M55,144h1 M85,144h1 M106,144h1 M0,145h1 M31,145h1 M51,145h1 M82,145h1 M103,145h1 M123,145h1 M27,146h1 M47,146h1 M76,146h1 M96,146h1 M116,146h1 M19,147h1 M39,147h1 M59,147h1 M87,147h1 M107,147h1 M145,147h1 M28,148h1 M48,148h1 M75,148h1 M95,148h1 M115,148h1 M14,149h1 M34,149h1 M54,149h1 M79,149h1 M99,149h1 M119,149h1 M20,150h1 M40,150h1 M60,150h1 M84,150h1 M104,150h1 M124,150h1 M23,151h1 M43,151h1 M63,151h1 M84,151h1 M105,151h1 M125,151h1 M23,152h1 M43,152h1 M63,152h1 M83,152h1 M103,152h1 M123,152h1 M18,153h1 M38,153h1 M58,153h1 M78,153h1 M98,153h1 M118,153h1 M14,154h1 M34,154h1 M54,154h1 M74,154h1 M94,154h1 M114,154h1 M9,155h1 M30,155h1 M50,155h1 M70,155h1 M90,155h1 M110,155h1 M135,155h1 M25,156h1 M45,156h1 M65,156h1 M85,156h1 M106,156h1 M126,156h1 M19,157h1 M39,157h1 M59,157h1 M79,157h1 M100,157h1 M121,157h1 M14,158h1 M34,158h1 M54,158h1 M74,158h1 M94,158h1 M114,158h1 M3,159h1 M27,159h1 M47,159h1 M67,159h1 M87,159h1 M107,159h1 M127,159h1 M18,160h1 M38,160h1 M58,160h1 M78,160h1 M98,160h1 M118,160h1 M9,161h1 M30,161h1 M50,161h1 M70,161h1 M90,161h1 M110,161h1 M130,161h1 M22,162h1 M42,162h1 M62,162h1 M82,162h1 M102,162h1 M122,162h1 M10,163h1 M30,163h1 M50,163h1 M70,163h1 M90,163h1 M111,163h1 M131,163h1 M22,164h1 M42,164h1 M62,164h1 M82,164h1 M102,164h1 M123,164h1 M13,165h1 M33,165h1 M53,165h1 M73,165h1 M93,165h1 M113,165h1 M138,165h1 M20,166h1 M40,166h1 M60,166h1 M80,166h1 M101,166h1 M121,166h1 M11,167h1 M31,167h1 M51,167h1 M71,167h1 M92,167h1 M112,167h1 M132,167h1 M20,168h1 M40,168h1 M60,168h1 M80,168h1 M100,168h1 M120,168h1 M4,169h1 M26,169h1 M46,169h1 M66,169h1 M86,169h1 M106,169h1 M127,169h1" stroke="currentColor" stroke-width="1"/></g>
<g opacity="0"><animate attributeName="opacity" values="0;1" dur="0.9s" begin="1.46s" fill="freeze" calcMode="spline" keyTimes="0;1" keySplines=".4 0 .2 1"/><path d="M20,3h1 M101,3h1 M36,6h1 M77,7h1 M110,9h1 M72,11h1 M16,13h1 M101,15h1 M56,17h1 M109,19h1 M134,21h1 M111,23h1 M140,25h1 M37,28h1 M56,30h1 M140,32h1 M25,35h1 M35,37h1 M76,39h1 M4,42h1 M46,44h1 M77,46h1 M124,48h1 M60,51h1 M13,53h1 M126,55h1 M12,57h1 M75,57h1 M70,58h1 M59,59h1 M79,59h1 M63,60h1 M83,60h1 M66,61h1 M87,61h1 M64,62h1 M84,62h1 M61,63h1 M81,63h1 M54,64h1 M74,64h1 M1,65h1 M69,65h1 M89,65h1 M60,66h1 M80,66h1 M55,67h1 M75,67h1 M118,67h1 M65,68h1 M85,68h1 M57,69h1 M77,69h1 M1,70h1 M66,70h1 M86,70h1 M55,71h1 M78,71h1 M116,71h1 M69,72h1 M90,72h1 M57,73h1 M84,73h1 M48,74h1 M77,74h1 M122,74h1 M65,75h1 M2,76h1 M91,76h1 M58,77h1 M46,78h1 M7,79h1 M75,79h1 M48,80h1 M36,81h1 M78,81h1 M48,82h1 M38,83h1 M94,83h1 M100,84h1 M55,85h1 M39,86h1 M73,86h1 M19,87h1 M60,87h1 M88,87h1 M49,88h1 M76,88h1 M28,89h1 M68,89h1 M36,90h1 M66,90h1 M20,91h1 M65,91h1 M103,91h1 M54,92h1 M85,92h1 M47,93h1 M81,93h1 M41,94h1 M89,94h1 M52,95h1 M120,95h1 M56,96h1 M142,96h1 M64,97h1 M43,98h1 M2,99h1 M64,99h1 M37,100h1 M137,100h1 M61,101h1 M38,102h1 M94,102h1 M49,103h1 M21,104h1 M69,104h1 M44,105h1 M131,105h1 M66,106h1 M17,107h1 M63,107h1 M127,107h1 M61,108h1 M7,109h1 M69,109h1 M39,110h1 M81,110h1 M51,111h1 M79,111h1 M36,112h1 M76,112h1 M45,113h1 M79,113h1 M26,114h1 M60,114h1 M89,114h1 M58,115h1 M79,115h1 M32,116h1 M76,116h1 M38,117h1 M78,117h1 M39,118h1 M80,118h1 M45,119h1 M75,119h1 M29,120h1 M61,120h1 M120,120h1 M54,121h1 M91,121h1 M41,122h1 M71,122h1 M34,123h1 M63,123h1 M8,124h1 M49,124h1 M90,124h1 M39,125h1 M62,125h1 M132,125h1 M45,126h1 M68,126h1 M13,127h1 M49,127h1 M75,127h1 M136,127h1 M44,128h1 M64,128h1 M91,128h1 M29,129h1 M52,129h1 M73,129h1 M99,129h1 M36,130h1 M56,130h1 M86,130h1 M118,130h1 M42,131h1 M62,131h1 M89,131h1 M142,131h1 M41,132h1 M61,132h1 M93,132h1 M21,133h1 M47,133h1 M67,133h1 M97,133h1 M16,134h1 M46,134h1 M67,134h1 M95,134h1 M1,135h1 M40,135h1 M60,135h1 M88,135h1 M108,135h1 M34,136h1 M54,136h1 M81,136h1 M101,136h1 M17,137h1 M41,137h1 M61,137h1 M87,137h1 M107,137h1 M28,138h1 M48,138h1 M73,138h1 M97,138h1 M117,138h1 M33,139h1 M53,139h1 M79,139h1 M100,139h1 M130,139h1 M36,140h1 M56,140h1 M87,140h1 M107,140h1 M20,141h1 M40,141h1 M60,141h1 M88,141h1 M108,141h1 M20,142h1 M40,142h1 M60,142h1 M90,142h1 M110,142h1 M19,143h1 M39,143h1 M59,143h1 M87,143h1 M107,143h1 M15,144h1 M36,144h1 M56,144h1 M86,144h1 M107,144h1 M2,145h1 M32,145h1 M52,145h1 M83,145h1 M104,145h1 M124,145h1 M28,146h1 M48,146h1 M77,146h1 M97,146h1 M117,146h1 M20,147h1 M40,147h1 M60,147h1 M88,147h1 M108,147h1 M4,148h1 M29,148h1 M49,148h1 M76,148h1 M96,148h1 M116,148h1 M15,149h1 M35,149h1 M55,149h1 M80,149h1 M100,149h1 M120,149h1 M21,150h1 M41,150h1 M61,150h1 M85,150h1 M105,150h1 M125,150h1 M24,151h1 M44,151h1 M64,151h1 M85,151h1 M106,151h1 M126,151h1 M24,152h1 M44,152h1 M64,152h1 M84,152h1 M104,152h1 M124,152h1 M19,153h1 M39,153h1 M59,153h1 M79,153h1 M99,153h1 M119,153h1 M15,154h1 M35,154h1 M55,154h1 M75,154h1 M95,154h1 M115,154h1 M10,155h1 M31,155h1 M51,155h1 M71,155h1 M91,155h1 M111,155h1 M138,155h1 M26,156h1 M46,156h1 M66,156h1 M86,156h1 M107,156h1 M127,156h1 M20,157h1 M40,157h1 M60,157h1 M80,157h1 M101,157h1 M122,157h1 M15,158h1 M35,158h1 M55,158h1 M75,158h1 M95,158h1 M115,158h1 M5,159h1 M28,159h1 M48,159h1 M68,159h1 M88,159h1 M108,159h1 M128,159h1 M19,160h1 M39,160h1 M59,160h1 M79,160h1 M99,160h1 M119,160h1 M10,161h1 M31,161h1 M51,161h1 M71,161h1 M91,161h1 M111,161h1 M131,161h1 M23,162h1 M43,162h1 M63,162h1 M83,162h1 M103,162h1 M123,162h1 M11,163h1 M31,163h1 M51,163h1 M71,163h1 M91,163h1 M112,163h1 M1,164h1 M23,164h1 M43,164h1 M63,164h1 M83,164h1 M103,164h1 M124,164h1 M14,165h1 M34,165h1 M54,165h1 M74,165h1 M94,165h1 M114,165h1 M145,165h1 M21,166h1 M41,166h1 M61,166h1 M81,166h1 M102,166h1 M122,166h1 M12,167h1 M32,167h1 M52,167h1 M72,167h1 M93,167h1 M113,167h1 M146,167h1 M21,168h1 M41,168h1 M61,168h1 M81,168h1 M101,168h1 M121,168h1 M5,169h1 M27,169h1 M47,169h1 M67,169h1 M87,169h1 M107,169h1 M128,169h1" stroke="currentColor" stroke-width="1"/></g>
<g opacity="0"><animate attributeName="opacity" values="0;1" dur="0.9s" begin="1.08s" fill="freeze" calcMode="spline" keyTimes="0;1" keySplines=".4 0 .2 1"/><path d="M24,3h1 M105,3h1 M51,6h1 M81,7h1 M115,9h1 M76,11h1 M23,13h1 M114,15h1 M81,17h1 M113,19h1 M139,21h1 M143,23h1 M11,26h1 M92,28h1 M76,30h1 M10,33h1 M32,35h1 M41,37h1 M86,39h1 M11,42h1 M91,44h1 M94,46h1 M128,48h1 M69,51h1 M38,53h1 M131,55h1 M15,57h1 M76,57h1 M71,58h1 M60,59h1 M80,59h1 M64,60h1 M84,60h1 M67,61h1 M132,61h1 M65,62h1 M85,62h1 M62,63h1 M82,63h1 M55,64h1 M75,64h1 M20,65h1 M70,65h1 M90,65h1 M61,66h1 M81,66h1 M56,67h1 M76,67h1 M126,67h1 M66,68h1 M86,68h1 M58,69h1 M78,69h1 M4,70h1 M67,70h1 M87,70h1 M56,71h1 M79,71h1 M120,71h1 M71,72h1 M91,72h1 M58,73h1 M85,73h1 M49,74h1 M79,74h1 M129,74h1 M69,75h1 M16,76h1 M92,76h1 M60,77h1 M48,78h1 M21,79h1 M78,79h1 M49,80h1 M39,81h1 M85,81h1 M49,82h1 M40,83h1 M95,83h1 M107,84h1 M56,85h1 M42,86h1 M77,86h1 M29,87h1 M61,87h1 M91,87h1 M51,88h1 M77,88h1 M32,89h1 M70,89h1 M38,90h1 M67,90h1 M27,91h1 M66,91h1 M109,91h1 M55,92h1 M86,92h1 M48,93h1 M82,93h1 M43,94h1 M92,94h1 M54,95h1 M126,95h1 M58,96h1 M1,97h1 M67,97h1 M44,98h1 M5,99h1 M66,99h1 M40,100h1 M3,101h1 M65,101h1 M40,102h1 M97,102h1 M51,103h1 M28,104h1 M77,104h1 M45,105h1 M19,106h1 M67,106h1 M25,107h1 M64,107h1 M142,107h1 M63,108h1 M12,109h1 M75,109h1 M41,110h1 M89,110h1 M52,111h1 M83,111h1 M38,112h1 M78,112h1 M47,113h1 M80,113h1 M29,114h1 M61,114h1 M96,114h1 M59,115h1 M80,115h1 M34,116h1 M80,116h1 M40,117h1 M81,117h1 M41,118h1 M85,118h1 M47,119h1 M78,119h1 M31,120h1 M63,120h1 M137,120h1 M55,121h1 M95,121h1 M43,122h1 M77,122h1 M36,123h1 M65,123h1 M11,124h1 M50,124h1 M91,124h1 M41,125h1 M63,125h1 M5,126h1 M46,126h1 M72,126h1 M17,127h1 M50,127h1 M77,127h1 M147,127h1 M45,128h1 M65,128h1 M92,128h1 M31,129h1 M53,129h1 M74,129h1 M100,129h1 M37,130h1 M57,130h1 M87,130h1 M146,130h1 M43,131h1 M63,131h1 M90,131h1 M1,132h1 M42,132h1 M63,132h1 M94,132h1 M24,133h1 M48,133h1 M69,133h1 M98,133h1 M20,134h1 M47,134h1 M68,134h1 M96,134h1 M3,135h1 M41,135h1 M61,135h1 M89,135h1 M109,135h1 M35,136h1 M55,136h1 M82,136h1 M102,136h1 M19,137h1 M42,137h1 M62,137h1 M88,137h1 M108,137h1 M29,138h1 M49,138h1 M78,138h1 M98,138h1 M137,138h1 M34,139h1 M54,139h1 M80,139h1 M101,139h1 M5,140h1 M37,140h1 M57,140h1 M88,140h1 M108,140h1 M21,141h1 M41,141h1 M61,141h1 M89,141h1 M109,141h1 M21,142h1 M41,142h1 M61,142h1 M91,142h1 M111,142h1 M20,143h1 M40,143h1 M60,143h1 M88,143h1 M108,143h1 M17,144h1 M37,144h1 M57,144h1 M87,144h1 M108,144h1 M6,145h1 M33,145h1 M53,145h1 M84,145h1 M105,145h1 M130,145h1 M29,146h1 M49,146h1 M78,146h1 M98,146h1 M118,146h1 M21,147h1 M41,147h1 M61,147h1 M89,147h1 M109,147h1 M6,148h1 M30,148h1 M50,148h1 M77,148h1 M97,148h1 M117,148h1 M16,149h1 M36,149h1 M56,149h1 M81,149h1 M101,149h1 M121,149h1 M22,150h1 M42,150h1 M62,150h1 M86,150h1 M106,150h1 M126,150h1 M25,151h1 M45,151h1 M65,151h1 M86,151h1 M107,151h1 M127,151h1 M25,152h1 M45,152h1 M65,152h1 M85,152h1 M105,152h1 M125,152h1 M20,153h1 M40,153h1 M60,153h1 M80,153h1 M100,153h1 M120,153h1 M16,154h1 M36,154h1 M56,154h1 M76,154h1 M96,154h1 M116,154h1 M12,155h1 M32,155h1 M52,155h1 M72,155h1 M92,155h1 M112,155h1 M2,156h1 M27,156h1 M47,156h1 M67,156h1 M87,156h1 M108,156h1 M128,156h1 M21,157h1 M41,157h1 M61,157h1 M81,157h1 M102,157h1 M123,157h1 M16,158h1 M36,158h1 M56,158h1 M76,158h1 M96,158h1 M116,158h1 M6,159h1 M29,159h1 M49,159h1 M69,159h1 M89,159h1 M109,159h1 M129,159h1 M20,160h1 M40,160h1 M60,160h1 M80,160h1 M100,160h1 M120,160h1 M12,161h1 M32,161h1 M52,161h1 M72,161h1 M92,161h1 M112,161h1 M142,161h1 M24,162h1 M44,162h1 M64,162h1 M84,162h1 M104,162h1 M124,162h1 M12,163h1 M32,163h1 M52,163h1 M72,163h1 M92,163h1 M113,163h1 M2,164h1 M24,164h1 M44,164h1 M64,164h1 M84,164h1 M104,164h1 M125,164h1 M15,165h1 M35,165h1 M55,165h1 M75,165h1 M95,165h1 M115,165h1 M148,165h1 M22,166h1 M42,166h1 M62,166h1 M82,166h1 M103,166h1 M123,166h1 M13,167h1 M33,167h1 M53,167h1 M73,167h1 M94,167h1 M114,167h1 M0,168h1 M22,168h1 M42,168h1 M62,168h1 M82,168h1 M102,168h1 M122,168h1 M7,169h1 M28,169h1 M48,169h1 M68,169h1 M88,169h1 M109,169h1 M129,169h1" stroke="currentColor" stroke-width="1"/></g>
<g opacity="0"><animate attributeName="opacity" values="0;1" dur="0.9s" begin="1.08s" fill="freeze" calcMode="spline" keyTimes="0;1" keySplines=".4 0 .2 1"/><path d="M28,3h1 M110,3h1 M57,6h1 M85,7h1 M120,9h1 M84,11h1 M140,13h1 M120,15h1 M107,17h1 M146,19h1 M9,22h1 M147,23h1 M17,26h1 M97,28h1 M101,30h1 M22,33h1 M44,35h1 M51,37h1 M98,39h1 M15,42h1 M98,44h1 M101,46h1 M141,48h1 M76,51h1 M42,53h1 M138,55h1 M28,57h1 M77,57h1 M72,58h1 M61,59h1 M81,59h1 M65,60h1 M111,60h1 M68,61h1 M2,62h1 M66,62h1 M86,62h1 M63,63h1 M83,63h1 M56,64h1 M76,64h1 M24,65h1 M71,65h1 M95,65h1 M62,66h1 M82,66h1 M57,67h1 M77,67h1 M137,67h1 M67,68h1 M87,68h1 M59,69h1 M79,69h1 M16,70h1 M68,70h1 M88,70h1 M57,71h1 M80,71h1 M136,71h1 M72,72h1 M92,72h1 M59,73h1 M86,73h1 M50,74h1 M80,74h1 M6,75h1 M71,75h1 M43,76h1 M93,76h1 M63,77h1 M49,78h1 M25,79h1 M83,79h1 M50,80h1 M41,81h1 M87,81h1 M52,82h1 M42,83h1 M115,83h1 M111,84h1 M57,85h1 M44,86h1 M78,86h1 M32,87h1 M62,87h1 M93,87h1 M52,88h1 M78,88h1 M35,89h1 M74,89h1 M40,90h1 M68,90h1 M33,91h1 M68,91h1 M114,91h1 M56,92h1 M87,92h1 M50,93h1 M85,93h1 M45,94h1 M95,94h1 M57,95h1 M131,95h1 M59,96h1 M6,97h1 M68,97h1 M46,98h1 M11,99h1 M67,99h1 M42,100h1 M6,101h1 M66,101h1 M42,102h1 M110,102h1 M53,103h1 M30,104h1 M79,104h1 M47,105h1 M22,106h1 M68,106h1 M27,107h1 M65,107h1 M15,108h1 M64,108h1 M27,109h1 M84,109h1 M43,110h1 M91,110h1 M54,111h1 M85,111h1 M41,112h1 M79,112h1 M49,113h1 M81,113h1 M31,114h1 M62,114h1 M130,114h1 M60,115h1 M81,115h1 M36,116h1 M81,116h1 M42,117h1 M83,117h1 M43,118h1 M88,118h1 M48,119h1 M82,119h1 M33,120h1 M65,120h1 M2,121h1 M56,121h1 M104,121h1 M45,122h1 M79,122h1 M38,123h1 M67,123h1 M14,124h1 M51,124h1 M92,124h1 M42,125h1 M65,125h1 M7,126h1 M47,126h1 M76,126h1 M21,127h1 M51,127h1 M79,127h1 M5,128h1 M46,128h1 M66,128h1 M93,128h1 M32,129h1 M54,129h1 M75,129h1 M101,129h1 M38,130h1 M58,130h1 M88,130h1 M3,131h1 M44,131h1 M64,131h1 M91,131h1 M5,132h1 M43,132h1 M64,132h1 M95,132h1 M27,133h1 M49,133h1 M71,133h1 M99,133h1 M23,134h1 M48,134h1 M70,134h1 M97,134h1 M11,135h1 M42,135h1 M62,135h1 M90,135h1 M110,135h1 M36,136h1 M56,136h1 M83,136h1 M103,136h1 M21,137h1 M43,137h1 M63,137h1 M89,137h1 M109,137h1 M30,138h1 M50,138h1 M79,138h1 M99,138h1 M144,138h1 M35,139h1 M55,139h1 M81,139h1 M102,139h1 M15,140h1 M38,140h1 M58,140h1 M89,140h1 M109,140h1 M22,141h1 M42,141h1 M62,141h1 M90,141h1 M110,141h1 M22,142h1 M42,142h1 M62,142h1 M92,142h1 M112,142h1 M21,143h1 M41,143h1 M61,143h1 M89,143h1 M109,143h1 M18,144h1 M38,144h1 M58,144h1 M89,144h1 M109,144h1 M9,145h1 M34,145h1 M54,145h1 M85,145h1 M106,145h1 M139,145h1 M30,146h1 M50,146h1 M79,146h1 M99,146h1 M119,146h1 M22,147h1 M42,147h1 M62,147h1 M90,147h1 M110,147h1 M8,148h1 M31,148h1 M51,148h1 M78,148h1 M98,148h1 M118,148h1 M17,149h1 M37,149h1 M57,149h1 M82,149h1 M102,149h1 M122,149h1 M23,150h1 M43,150h1 M63,150h1 M87,150h1 M107,150h1 M134,150h1 M26,151h1 M46,151h1 M66,151h1 M87,151h1 M108,151h1 M138,151h1 M26,152h1 M46,152h1 M66,152h1 M86,152h1 M106,152h1 M126,152h1 M21,153h1 M41,153h1 M61,153h1 M81,153h1 M101,153h1 M121,153h1 M17,154h1 M37,154h1 M57,154h1 M77,154h1 M97,154h1 M117,154h1 M13,155h1 M33,155h1 M53,155h1 M73,155h1 M93,155h1 M113,155h1 M4,156h1 M28,156h1 M48,156h1 M68,156h1 M88,156h1 M109,156h1 M129,156h1 M22,157h1 M42,157h1 M62,157h1 M82,157h1 M103,157h1 M124,157h1 M17,158h1 M37,158h1 M57,158h1 M77,158h1 M97,158h1 M117,158h1 M8,159h1 M30,159h1 M50,159h1 M70,159h1 M90,159h1 M110,159h1 M130,159h1 M21,160h1 M41,160h1 M61,160h1 M81,160h1 M101,160h1 M121,160h1 M13,161h1 M33,161h1 M53,161h1 M73,161h1 M93,161h1 M113,161h1 M1,162h1 M25,162h1 M45,162h1 M65,162h1 M85,162h1 M105,162h1 M125,162h1 M13,163h1 M33,163h1 M53,163h1 M73,163h1 M93,163h1 M114,163h1 M3,164h1 M25,164h1 M45,164h1 M65,164h1 M85,164h1 M105,164h1 M126,164h1 M16,165h1 M36,165h1 M56,165h1 M76,165h1 M96,165h1 M116,165h1 M0,166h1 M23,166h1 M43,166h1 M63,166h1 M83,166h1 M104,166h1 M124,166h1 M14,167h1 M34,167h1 M54,167h1 M74,167h1 M95,167h1 M115,167h1 M2,168h1 M23,168h1 M43,168h1 M63,168h1 M83,168h1 M103,168h1 M123,168h1 M9,169h1 M29,169h1 M49,169h1 M69,169h1 M89,169h1 M110,169h1 M130,169h1" stroke="currentColor" stroke-width="1"/></g>
<g opacity="0"><animate attributeName="opacity" values="0;1" dur="0.9s" begin="0.85s" fill="freeze" calcMode="spline" keyTimes="0;1" keySplines=".4 0 .2 1"/><path d="M31,3h1 M115,3h1 M69,6h1 M94,7h1 M125,9h1 M102,11h1 M4,14h1 M125,15h1 M117,17h1 M2,20h1 M13,22h1 M26,24h1 M23,26h1 M105,28h1 M109,30h1 M28,33h1 M70,35h1 M67,37h1 M119,39h1 M27,42h1 M110,44h1 M138,46h1 M3,49h1 M88,51h1 M98,53h1 M2,56h1 M36,57h1 M79,57h1 M73,58h1 M62,59h1 M82,59h1 M66,60h1 M137,60h1 M69,61h1 M12,62h1 M67,62h1 M87,62h1 M64,63h1 M84,63h1 M57,64h1 M77,64h1 M51,65h1 M72,65h1 M121,65h1 M63,66h1 M83,66h1 M58,67h1 M78,67h1 M144,67h1 M68,68h1 M88,68h1 M60,69h1 M80,69h1 M32,70h1 M69,70h1 M89,70h1 M58,71h1 M81,71h1 M5,72h1 M73,72h1 M93,72h1 M62,73h1 M87,73h1 M51,74h1 M81,74h1 M11,75h1 M72,75h1 M45,76h1 M94,76h1 M65,77h1 M50,78h1 M39,79h1 M85,79h1 M51,80h1 M44,81h1 M93,81h1 M54,82h1 M44,83h1 M138,83h1 M130,84h1 M58,85h1 M46,86h1 M79,86h1 M34,87h1 M63,87h1 M94,87h1 M53,88h1 M79,88h1 M38,89h1 M75,89h1 M43,90h1 M71,90h1 M35,91h1 M69,91h1 M133,91h1 M58,92h1 M90,92h1 M52,93h1 M86,93h1 M46,94h1 M110,94h1 M59,95h1 M3,96h1 M60,96h1 M20,97h1 M69,97h1 M48,98h1 M14,99h1 M69,99h1 M44,100h1 M9,101h1 M67,101h1 M43,102h1 M115,102h1 M56,103h1 M32,104h1 M87,104h1 M48,105h1 M29,106h1 M70,106h1 M30,107h1 M66,107h1 M20,108h1 M65,108h1 M30,109h1 M87,109h1 M44,110h1 M102,110h1 M56,111h1 M87,111h1 M43,112h1 M80,112h1 M50,113h1 M82,113h1 M34,114h1 M63,114h1 M141,114h1 M61,115h1 M82,115h1 M38,116h1 M87,116h1 M44,117h1 M85,117h1 M45,118h1 M89,118h1 M50,119h1 M84,119h1 M35,120h1 M66,120h1 M17,121h1 M58,121h1 M127,121h1 M47,122h1 M83,122h1 M40,123h1 M69,123h1 M18,124h1 M52,124h1 M104,124h1 M44,125h1 M66,125h1 M9,126h1 M48,126h1 M78,126h1 M24,127h1 M52,127h1 M82,127h1 M8,128h1 M47,128h1 M67,128h1 M94,128h1 M34,129h1 M55,129h1 M76,129h1 M102,129h1 M39,130h1 M59,130h1 M89,130h1 M14,131h1 M45,131h1 M65,131h1 M92,131h1 M8,132h1 M44,132h1 M65,132h1 M96,132h1 M29,133h1 M50,133h1 M73,133h1 M100,133h1 M29,134h1 M49,134h1 M72,134h1 M98,134h1 M14,135h1 M43,135h1 M63,135h1 M91,135h1 M111,135h1 M37,136h1 M57,136h1 M84,136h1 M104,136h1 M24,137h1 M44,137h1 M64,137h1 M90,137h1 M110,137h1 M31,138h1 M51,138h1 M80,138h1 M100,138h1 M1,139h1 M36,139h1 M56,139h1 M82,139h1 M103,139h1 M18,140h1 M39,140h1 M59,140h1 M90,140h1 M110,140h1 M23,141h1 M43,141h1 M64,141h1 M91,141h1 M111,141h1 M23,142h1 M43,142h1 M65,142h1 M93,142h1 M113,142h1 M22,143h1 M42,143h1 M62,143h1 M90,143h1 M110,143h1 M19,144h1 M39,144h1 M59,144h1 M90,144h1 M110,144h1 M13,145h1 M35,145h1 M55,145h1 M86,145h1 M107,145h1 M147,145h1 M31,146h1 M51,146h1 M80,146h1 M100,146h1 M120,146h1 M23,147h1 M43,147h1 M63,147h1 M91,147h1 M111,147h1 M10,148h1 M32,148h1 M52,148h1 M79,148h1 M99,148h1 M119,148h1 M18,149h1 M38,149h1 M58,149h1 M83,149h1 M103,149h1 M123,149h1 M24,150h1 M44,150h1 M64,150h1 M88,150h1 M108,150h1 M141,150h1 M27,151h1 M47,151h1 M67,151h1 M88,151h1 M109,151h1 M146,151h1 M27,152h1 M47,152h1 M67,152h1 M87,152h1 M107,152h1 M127,152h1 M22,153h1 M42,153h1 M62,153h1 M82,153h1 M102,153h1 M122,153h1 M18,154h1 M38,154h1 M58,154h1 M78,154h1 M98,154h1 M118,154h1 M14,155h1 M34,155h1 M54,155h1 M74,155h1 M94,155h1 M114,155h1 M6,156h1 M29,156h1 M49,156h1 M69,156h1 M89,156h1 M110,156h1 M141,156h1 M23,157h1 M43,157h1 M63,157h1 M83,157h1 M104,157h1 M125,157h1 M18,158h1 M38,158h1 M58,158h1 M78,158h1 M98,158h1 M118,158h1 M10,159h1 M31,159h1 M51,159h1 M71,159h1 M91,159h1 M111,159h1 M139,159h1 M22,160h1 M42,160h1 M62,160h1 M82,160h1 M102,160h1 M122,160h1 M14,161h1 M34,161h1 M54,161h1 M74,161h1 M94,161h1 M114,161h1 M3,162h1 M26,162h1 M46,162h1 M66,162h1 M86,162h1 M106,162h1 M126,162h1 M14,163h1 M34,163h1 M54,163h1 M74,163h1 M94,163h1 M115,163h1 M4,164h1 M26,164h1 M46,164h1 M66,164h1 M86,164h1 M106,164h1 M127,164h1 M17,165h1 M37,165h1 M57,165h1 M77,165h1 M97,165h1 M117,165h1 M2,166h1 M24,166h1 M44,166h1 M64,166h1 M84,166h1 M105,166h1 M125,166h1 M15,167h1 M35,167h1 M55,167h1 M75,167h1 M96,167h1 M116,167h1 M3,168h1 M24,168h1 M44,168h1 M64,168h1 M84,168h1 M104,168h1 M124,168h1 M10,169h1 M30,169h1 M50,169h1 M70,169h1 M90,169h1 M111,169h1 M131,169h1" stroke="currentColor" stroke-width="1"/></g>
<g opacity="0"><animate attributeName="opacity" values="0;1" dur="0.9s" begin="0.16s" fill="freeze" calcMode="spline" keyTimes="0;1" keySplines=".4 0 .2 1"/><path d="M34,3h1 M120,3h1 M97,6h1 M101,7h1 M19,10h1 M107,11h1 M19,14h1 M147,15h1 M140,17h1 M6,20h1 M17,22h1 M45,24h1 M48,26h1 M116,28h1 M146,30h1 M48,33h1 M87,35h1 M101,37h1 M144,39h1 M50,42h1 M116,44h1 M145,46h1 M19,49h1 M95,51h1 M110,53h1 M8,56h1 M40,57h1 M98,57h1 M74,58h1 M63,59h1 M95,59h1 M67,60h1 M6,61h1 M70,61h1 M15,62h1 M68,62h1 M88,62h1 M65,63h1 M85,63h1 M58,64h1 M78,64h1 M53,65h1 M73,65h1 M130,65h1 M64,66h1 M84,66h1 M59,67h1 M79,67h1 M12,68h1 M69,68h1 M89,68h1 M61,69h1 M81,69h1 M37,70h1 M70,70h1 M90,70h1 M59,71h1 M82,71h1 M49,72h1 M74,72h1 M94,72h1 M65,73h1 M88,73h1 M52,74h1 M82,74h1 M22,75h1 M73,75h1 M47,76h1 M95,76h1 M91,77h1 M51,78h1 M41,79h1 M88,79h1 M53,80h1 M46,81h1 M94,81h1 M56,82h1 M46,83h1 M4,84h1 M146,84h1 M60,85h1 M48,86h1 M80,86h1 M37,87h1 M64,87h1 M98,87h1 M54,88h1 M80,88h1 M41,89h1 M76,89h1 M44,90h1 M73,90h1 M38,91h1 M70,91h1 M143,91h1 M59,92h1 M93,92h1 M54,93h1 M87,93h1 M48,94h1 M116,94h1 M62,95h1 M12,96h1 M61,96h1 M23,97h1 M73,97h1 M50,98h1 M23,99h1 M75,99h1 M45,100h1 M12,101h1 M70,101h1 M44,102h1 M121,102h1 M60,103h1 M34,104h1 M89,104h1 M50,105h1 M31,106h1 M71,106h1 M32,107h1 M67,107h1 M23,108h1 M66,108h1 M34,109h1 M97,109h1 M45,110h1 M106,110h1 M58,111h1 M90,111h1 M44,112h1 M88,112h1 M52,113h1 M84,113h1 M37,114h1 M64,114h1 M2,115h1 M62,115h1 M84,115h1 M40,116h1 M99,116h1 M46,117h1 M88,117h1 M47,118h1 M109,118h1 M52,119h1 M86,119h1 M38,120h1 M68,120h1 M22,121h1 M60,121h1 M131,121h1 M49,122h1 M86,122h1 M42,123h1 M72,123h1 M20,124h1 M53,124h1 M107,124h1 M46,125h1 M69,125h1 M12,126h1 M49,126h1 M79,126h1 M26,127h1 M53,127h1 M87,127h1 M11,128h1 M48,128h1 M68,128h1 M95,128h1 M35,129h1 M56,129h1 M77,129h1 M106,129h1 M40,130h1 M60,130h1 M90,130h1 M16,131h1 M46,131h1 M66,131h1 M93,131h1 M10,132h1 M45,132h1 M67,132h1 M97,132h1 M31,133h1 M51,133h1 M76,133h1 M101,133h1 M30,134h1 M50,134h1 M75,134h1 M99,134h1 M18,135h1 M44,135h1 M64,135h1 M92,135h1 M112,135h1 M38,136h1 M58,136h1 M85,136h1 M105,136h1 M25,137h1 M45,137h1 M65,137h1 M91,137h1 M111,137h1 M32,138h1 M52,138h1 M81,138h1 M101,138h1 M3,139h1 M37,139h1 M57,139h1 M83,139h1 M104,139h1 M20,140h1 M40,140h1 M60,140h1 M91,140h1 M111,140h1 M24,141h1 M44,141h1 M66,141h1 M92,141h1 M112,141h1 M24,142h1 M44,142h1 M73,142h1 M94,142h1 M114,142h1 M23,143h1 M43,143h1 M63,143h1 M91,143h1 M111,143h1 M20,144h1 M40,144h1 M60,144h1 M91,144h1 M111,144h1 M15,145h1 M36,145h1 M56,145h1 M87,145h1 M108,145h1 M4,146h1 M32,146h1 M52,146h1 M81,146h1 M101,146h1 M121,146h1 M24,147h1 M44,147h1 M64,147h1 M92,147h1 M112,147h1 M11,148h1 M33,148h1 M53,148h1 M80,148h1 M100,148h1 M120,148h1 M19,149h1 M39,149h1 M59,149h1 M84,149h1 M104,149h1 M124,149h1 M25,150h1 M45,150h1 M65,150h1 M89,150h1 M109,150h1 M144,150h1 M28,151h1 M48,151h1 M68,151h1 M89,151h1 M110,151h1 M2,152h1 M28,152h1 M48,152h1 M68,152h1 M88,152h1 M108,152h1 M128,152h1 M23,153h1 M43,153h1 M63,153h1 M83,153h1 M103,153h1 M123,153h1 M19,154h1 M39,154h1 M59,154h1 M79,154h1 M99,154h1 M119,154h1 M15,155h1 M35,155h1 M55,155h1 M75,155h1 M95,155h1 M115,155h1 M8,156h1 M30,156h1 M50,156h1 M70,156h1 M90,156h1 M111,156h1 M147,156h1 M24,157h1 M44,157h1 M64,157h1 M84,157h1 M105,157h1 M126,157h1 M19,158h1 M39,158h1 M59,158h1 M79,158h1 M99,158h1 M119,158h1 M12,159h1 M32,159h1 M52,159h1 M72,159h1 M92,159h1 M112,159h1 M148,159h1 M23,160h1 M43,160h1 M63,160h1 M83,160h1 M103,160h1 M123,160h1 M15,161h1 M35,161h1 M55,161h1 M75,161h1 M95,161h1 M115,161h1 M4,162h1 M27,162h1 M47,162h1 M67,162h1 M87,162h1 M107,162h1 M127,162h1 M15,163h1 M35,163h1 M55,163h1 M75,163h1 M95,163h1 M116,163h1 M5,164h1 M27,164h1 M47,164h1 M67,164h1 M87,164h1 M107,164h1 M128,164h1 M18,165h1 M38,165h1 M58,165h1 M78,165h1 M98,165h1 M118,165h1 M3,166h1 M25,166h1 M45,166h1 M65,166h1 M85,166h1 M106,166h1 M126,166h1 M16,167h1 M36,167h1 M56,167h1 M76,167h1 M97,167h1 M117,167h1 M4,168h1 M25,168h1 M45,168h1 M65,168h1 M85,168h1 M105,168h1 M125,168h1 M11,169h1 M31,169h1 M51,169h1 M71,169h1 M91,169h1 M112,169h1 M132,169h1" stroke="currentColor" stroke-width="1"/></g>
<g opacity="0"><animate attributeName="opacity" values="0;1" dur="0.9s" begin="0.16s" fill="freeze" calcMode="spline" keyTimes="0;1" keySplines=".4 0 .2 1"/><path d="M38,3h1 M125,3h1 M107,6h1 M104,7h1 M69,10h1 M146,11h1 M32,14h1 M6,16h1 M11,18h1 M24,20h1 M21,22h1 M56,24h1 M82,26h1 M124,28h1 M41,31h1 M61,33h1 M121,35h1 M124,37h1 M2,40h1 M58,42h1 M125,44h1 M6,47h1 M24,49h1 M102,51h1 M134,53h1 M22,56h1 M44,57h1 M144,57h1 M75,58h1 M64,59h1 M101,59h1 M68,60h1 M22,61h1 M71,61h1 M27,62h1 M69,62h1 M98,62h1 M66,63h1 M86,63h1 M59,64h1 M79,64h1 M54,65h1 M74,65h1 M6,66h1 M65,66h1 M85,66h1 M60,67h1 M80,67h1 M42,68h1 M70,68h1 M90,68h1 M62,69h1 M82,69h1 M50,70h1 M71,70h1 M91,70h1 M60,71h1 M83,71h1 M50,72h1 M75,72h1 M95,72h1 M68,73h1 M89,73h1 M53,74h1 M84,74h1 M27,75h1 M74,75h1 M48,76h1 M96,76h1 M92,77h1 M53,78h1 M43,79h1 M92,79h1 M55,80h1 M48,81h1 M95,81h1 M58,82h1 M48,83h1 M14,84h1 M1,85h1 M62,85h1 M49,86h1 M81,86h1 M39,87h1 M65,87h1 M109,87h1 M55,88h1 M81,88h1 M43,89h1 M78,89h1 M45,90h1 M75,90h1 M41,91h1 M74,91h1 M7,92h1 M60,92h1 M97,92h1 M55,93h1 M88,93h1 M50,94h1 M7,95h1 M66,95h1 M15,96h1 M63,96h1 M26,97h1 M75,97h1 M53,98h1 M28,99h1 M82,99h1 M47,100h1 M17,101h1 M74,101h1 M46,102h1 M134,102h1 M64,103h1 M36,104h1 M91,104h1 M52,105h1 M34,106h1 M72,106h1 M34,107h1 M68,107h1 M28,108h1 M67,108h1 M38,109h1 M111,109h1 M47,110h1 M119,110h1 M61,111h1 M95,111h1 M46,112h1 M92,112h1 M54,113h1 M86,113h1 M39,114h1 M65,114h1 M27,115h1 M63,115h1 M86,115h1 M42,116h1 M103,116h1 M48,117h1 M89,117h1 M49,118h1 M129,118h1 M54,119h1 M88,119h1 M40,120h1 M69,120h1 M25,121h1 M61,121h1 M4,122h1 M50,122h1 M88,122h1 M44,123h1 M74,123h1 M22,124h1 M54,124h1 M125,124h1 M47,125h1 M71,125h1 M15,126h1 M50,126h1 M80,126h1 M28,127h1 M54,127h1 M88,127h1 M18,128h1 M49,128h1 M69,128h1 M96,128h1 M37,129h1 M57,129h1 M79,129h1 M124,129h1 M41,130h1 M61,130h1 M91,130h1 M19,131h1 M47,131h1 M67,131h1 M94,131h1 M12,132h1 M46,132h1 M68,132h1 M98,132h1 M32,133h1 M52,133h1 M80,133h1 M102,133h1 M31,134h1 M51,134h1 M78,134h1 M100,134h1 M21,135h1 M45,135h1 M65,135h1 M93,135h1 M124,135h1 M39,136h1 M59,136h1 M86,136h1 M106,136h1 M26,137h1 M46,137h1 M67,137h1 M92,137h1 M112,137h1 M33,138h1 M53,138h1 M82,138h1 M102,138h1 M7,139h1 M38,139h1 M58,139h1 M84,139h1 M105,139h1 M21,140h1 M41,140h1 M61,140h1 M92,140h1 M112,140h1 M25,141h1 M45,141h1 M69,141h1 M93,141h1 M113,141h1 M25,142h1 M45,142h1 M75,142h1 M95,142h1 M115,142h1 M24,143h1 M44,143h1 M67,143h1 M92,143h1 M112,143h1 M21,144h1 M41,144h1 M61,144h1 M92,144h1 M112,144h1 M17,145h1 M37,145h1 M57,145h1 M88,145h1 M109,145h1 M11,146h1 M33,146h1 M53,146h1 M82,146h1 M102,146h1 M122,146h1 M25,147h1 M45,147h1 M65,147h1 M93,147h1 M113,147h1 M12,148h1 M34,148h1 M54,148h1 M81,148h1 M101,148h1 M121,148h1 M20,149h1 M40,149h1 M60,149h1 M85,149h1 M105,149h1 M125,149h1 M26,150h1 M46,150h1 M66,150h1 M90,150h1 M110,150h1 M7,151h1 M29,151h1 M49,151h1 M69,151h1 M90,151h1 M111,151h1 M4,152h1 M29,152h1 M49,152h1 M69,152h1 M89,152h1 M109,152h1 M132,152h1 M24,153h1 M44,153h1 M64,153h1 M84,153h1 M104,153h1 M124,153h1 M20,154h1 M40,154h1 M60,154h1 M80,154h1 M100,154h1 M120,154h1 M16,155h1 M36,155h1 M56,155h1 M76,155h1 M96,155h1 M116,155h1 M9,156h1 M31,156h1 M51,156h1 M71,156h1 M91,156h1 M112,156h1 M0,157h1 M25,157h1 M45,157h1 M65,157h1 M85,157h1 M106,157h1 M127,157h1 M20,158h1 M40,158h1 M60,158h1 M80,158h1 M100,158h1 M120,158h1 M13,159h1 M33,159h1 M53,159h1 M73,159h1 M93,159h1 M113,159h1 M1,160h1 M24,160h1 M44,160h1 M64,160h1 M84,160h1 M104,160h1 M124,160h1 M16,161h1 M36,161h1 M56,161h1 M76,161h1 M96,161h1 M116,161h1 M5,162h1 M28,162h1 M48,162h1 M68,162h1 M88,162h1 M108,162h1 M128,162h1 M16,163h1 M36,163h1 M56,163h1 M76,163h1 M96,163h1 M117,163h1 M7,164h1 M28,164h1 M48,164h1 M68,164h1 M88,164h1 M108,164h1 M129,164h1 M19,165h1 M39,165h1 M59,165h1 M79,165h1 M99,165h1 M119,165h1 M4,166h1 M26,166h1 M46,166h1 M66,166h1 M86,166h1 M107,166h1 M127,166h1 M17,167h1 M37,167h1 M57,167h1 M77,167h1 M98,167h1 M118,167h1 M6,168h1 M26,168h1 M46,168h1 M66,168h1 M86,168h1 M106,168h1 M126,168h1 M12,169h1 M32,169h1 M52,169h1 M72,169h1 M92,169h1 M113,169h1 M133,169h1" stroke="currentColor" stroke-width="1"/></g>
<g opacity="0"><animate attributeName="opacity" values="0;1" dur="0.9s" begin="0.09s" fill="freeze" calcMode="spline" keyTimes="0;1" keySplines=".4 0 .2 1"/><path d="M42,3h1 M130,3h1 M112,6h1 M140,7h1 M79,10h1 M26,12h1 M54,14h1 M26,16h1 M18,18h1 M28,20h1 M50,22h1 M64,24h1 M102,26h1 M128,28h1 M51,31h1 M99,33h1 M127,35h1 M9,38h1 M21,40h1 M64,42h1 M129,44h1 M14,47h1 M40,49h1 M106,51h1 M47,54h1 M63,56h1 M61,57h1 M6,58h1 M76,58h1 M65,59h1 M105,59h1 M69,60h1 M40,61h1 M72,61h1 M31,62h1 M70,62h1 M114,62h1 M67,63h1 M87,63h1 M60,64h1 M80,64h1 M55,65h1 M75,65h1 M10,66h1 M66,66h1 M86,66h1 M61,67h1 M81,67h1 M51,68h1 M71,68h1 M91,68h1 M63,69h1 M83,69h1 M51,70h1 M72,70h1 M92,70h1 M61,71h1 M84,71h1 M51,72h1 M76,72h1 M132,72h1 M70,73h1 M90,73h1 M54,74h1 M85,74h1 M45,75h1 M75,75h1 M49,76h1 M103,76h1 M93,77h1 M54,78h1 M45,79h1 M93,79h1 M57,80h1 M49,81h1 M105,81h1 M60,82h1 M49,83h1 M35,84h1 M11,85h1 M64,85h1 M51,86h1 M82,86h1 M41,87h1 M66,87h1 M116,87h1 M57,88h1 M82,88h1 M46,89h1 M79,89h1 M47,90h1 M77,90h1 M43,91h1 M76,91h1 M23,92h1 M61,92h1 M128,92h1 M56,93h1 M93,93h1 M52,94h1 M18,95h1 M67,95h1 M27,96h1 M65,96h1 M29,97h1 M80,97h1 M58,98h1 M31,99h1 M93,99h1 M48,100h1 M23,101h1 M76,101h1 M47,102h1 M146,102h1 M65,103h1 M39,104h1 M102,104h1 M53,105h1 M37,106h1 M73,106h1 M36,107h1 M69,107h1 M31,108h1 M68,108h1 M40,109h1 M114,109h1 M48,110h1 M144,110h1 M62,111h1 M108,111h1 M47,112h1 M99,112h1 M56,113h1 M90,113h1 M41,114h1 M66,114h1 M30,115h1 M64,115h1 M93,115h1 M44,116h1 M112,116h1 M49,117h1 M95,117h1 M50,118h1 M133,118h1 M55,119h1 M89,119h1 M42,120h1 M70,120h1 M28,121h1 M62,121h1 M6,122h1 M52,122h1 M89,122h1 M46,123h1 M77,123h1 M26,124h1 M55,124h1 M129,124h1 M48,125h1 M74,125h1 M18,126h1 M51,126h1 M85,126h1 M30,127h1 M55,127h1 M89,127h1 M20,128h1 M50,128h1 M71,128h1 M97,128h1 M38,129h1 M58,129h1 M83,129h1 M130,129h1 M42,130h1 M62,130h1 M92,130h1 M22,131h1 M48,131h1 M68,131h1 M95,131h1 M17,132h1 M47,132h1 M70,132h1 M99,132h1 M33,133h1 M53,133h1 M83,133h1 M103,133h1 M32,134h1 M52,134h1 M81,134h1 M101,134h1 M25,135h1 M46,135h1 M66,135h1 M94,135h1 M136,135h1 M40,136h1 M60,136h1 M87,136h1 M107,136h1 M27,137h1 M47,137h1 M69,137h1 M93,137h1 M113,137h1 M34,138h1 M54,138h1 M83,138h1 M103,138h1 M9,139h1 M39,139h1 M59,139h1 M85,139h1 M106,139h1 M22,140h1 M42,140h1 M63,140h1 M93,140h1 M113,140h1 M26,141h1 M46,141h1 M71,141h1 M94,141h1 M114,141h1 M26,142h1 M46,142h1 M76,142h1 M96,142h1 M116,142h1 M25,143h1 M45,143h1 M69,143h1 M93,143h1 M113,143h1 M22,144h1 M42,144h1 M62,144h1 M93,144h1 M113,144h1 M18,145h1 M38,145h1 M58,145h1 M89,145h1 M110,145h1 M12,146h1 M34,146h1 M54,146h1 M83,146h1 M103,146h1 M123,146h1 M26,147h1 M46,147h1 M66,147h1 M94,147h1 M114,147h1 M14,148h1 M35,148h1 M55,148h1 M82,148h1 M102,148h1 M122,148h1 M21,149h1 M41,149h1 M61,149h1 M86,149h1 M106,149h1 M126,149h1 M27,150h1 M47,150h1 M67,150h1 M91,150h1 M111,150h1 M9,151h1 M30,151h1 M50,151h1 M71,151h1 M91,151h1 M112,151h1 M6,152h1 M30,152h1 M50,152h1 M70,152h1 M90,152h1 M110,152h1 M136,152h1 M25,153h1 M45,153h1 M65,153h1 M85,153h1 M105,153h1 M125,153h1 M21,154h1 M41,154h1 M61,154h1 M81,154h1 M101,154h1 M121,154h1 M17,155h1 M37,155h1 M57,155h1 M77,155h1 M97,155h1 M117,155h1 M11,156h1 M32,156h1 M52,156h1 M72,156h1 M92,156h1 M113,156h1 M3,157h1 M26,157h1 M46,157h1 M66,157h1 M86,157h1 M108,157h1 M128,157h1 M21,158h1 M41,158h1 M61,158h1 M81,158h1 M101,158h1 M121,158h1 M14,159h1 M34,159h1 M54,159h1 M74,159h1 M94,159h1 M114,159h1 M2,160h1 M25,160h1 M45,160h1 M65,160h1 M85,160h1 M105,160h1 M125,160h1 M17,161h1 M37,161h1 M57,161h1 M77,161h1 M97,161h1 M117,161h1 M7,162h1 M29,162h1 M49,162h1 M69,162h1 M89,162h1 M109,162h1 M129,162h1 M17,163h1 M37,163h1 M57,163h1 M77,163h1 M97,163h1 M118,163h1 M8,164h1 M29,164h1 M49,164h1 M69,164h1 M89,164h1 M109,164h1 M130,164h1 M20,165h1 M40,165h1 M60,165h1 M80,165h1 M100,165h1 M120,165h1 M6,166h1 M27,166h1 M47,166h1 M67,166h1 M87,166h1 M108,166h1 M128,166h1 M18,167h1 M38,167h1 M58,167h1 M78,167h1 M99,167h1 M119,167h1 M7,168h1 M27,168h1 M47,168h1 M67,168h1 M87,168h1 M107,168h1 M127,168h1 M13,169h1 M33,169h1 M53,169h1 M73,169h1 M93,169h1 M114,169h1" stroke="currentColor" stroke-width="1"/></g>
<g opacity="0"><animate attributeName="opacity" values="0;1" dur="0.9s" begin="1.07s" fill="freeze" calcMode="spline" keyTimes="0;1" keySplines=".4 0 .2 1"/><path d="M46,3h1 M134,3h1 M117,6h1 M144,7h1 M87,10h1 M40,12h1 M59,14h1 M30,16h1 M52,18h1 M43,20h1 M53,22h1 M91,24h1 M108,26h1 M142,28h1 M66,31h1 M107,33h1 M133,35h1 M16,38h1 M32,40h1 M68,42h1 M1,45h1 M29,47h1 M57,49h1 M139,51h1 M54,54h1 M64,56h1 M62,57h1 M25,58h1 M77,58h1 M66,59h1 M121,59h1 M70,60h1 M45,61h1 M73,61h1 M36,62h1 M71,62h1 M118,62h1 M68,63h1 M88,63h1 M61,64h1 M81,64h1 M56,65h1 M76,65h1 M15,66h1 M67,66h1 M87,66h1 M62,67h1 M82,67h1 M52,68h1 M72,68h1 M92,68h1 M64,69h1 M84,69h1 M52,70h1 M73,70h1 M93,70h1 M62,71h1 M85,71h1 M52,72h1 M77,72h1 M142,72h1 M71,73h1 M91,73h1 M55,74h1 M86,74h1 M47,75h1 M84,75h1 M50,76h1 M133,76h1 M94,77h1 M56,78h1 M47,79h1 M94,79h1 M60,80h1 M50,81h1 M124,81h1 M62,82h1 M50,83h1 M39,84h1 M22,85h1 M71,85h1 M53,86h1 M83,86h1 M43,87h1 M70,87h1 M136,87h1 M59,88h1 M83,88h1 M48,89h1 M88,89h1 M48,90h1 M78,90h1 M46,91h1 M77,91h1 M29,92h1 M63,92h1 M4,93h1 M58,93h1 M95,93h1 M54,94h1 M23,95h1 M68,95h1 M30,96h1 M66,96h1 M32,97h1 M81,97h1 M60,98h1 M33,99h1 M95,99h1 M50,100h1 M29,101h1 M83,101h1 M48,102h1 M2,103h1 M67,103h1 M41,104h1 M106,104h1 M56,105h1 M39,106h1 M77,106h1 M38,107h1 M70,107h1 M33,108h1 M72,108h1 M42,109h1 M131,109h1 M49,110h1 M2,111h1 M63,111h1 M128,111h1 M48,112h1 M114,112h1 M58,113h1 M103,113h1 M43,114h1 M67,114h1 M33,115h1 M65,115h1 M108,115h1 M46,116h1 M115,116h1 M51,117h1 M105,117h1 M51,118h1 M145,118h1 M56,119h1 M98,119h1 M44,120h1 M71,120h1 M30,121h1 M64,121h1 M9,122h1 M53,122h1 M90,122h1 M47,123h1 M80,123h1 M28,124h1 M56,124h1 M137,124h1 M49,125h1 M78,125h1 M20,126h1 M52,126h1 M87,126h1 M32,127h1 M56,127h1 M90,127h1 M23,128h1 M51,128h1 M73,128h1 M98,128h1 M39,129h1 M59,129h1 M86,129h1 M139,129h1 M43,130h1 M63,130h1 M93,130h1 M25,131h1 M49,131h1 M69,131h1 M96,131h1 M20,132h1 M48,132h1 M75,132h1 M100,132h1 M34,133h1 M54,133h1 M84,133h1 M104,133h1 M33,134h1 M53,134h1 M82,134h1 M102,134h1 M27,135h1 M47,135h1 M68,135h1 M95,135h1 M142,135h1 M41,136h1 M61,136h1 M88,136h1 M108,136h1 M28,137h1 M48,137h1 M70,137h1 M94,137h1 M114,137h1 M35,138h1 M55,138h1 M84,138h1 M104,138h1 M11,139h1 M40,139h1 M60,139h1 M86,139h1 M107,139h1 M23,140h1 M43,140h1 M65,140h1 M94,140h1 M114,140h1 M27,141h1 M47,141h1 M75,141h1 M95,141h1 M115,141h1 M27,142h1 M47,142h1 M77,142h1 M97,142h1 M117,142h1 M26,143h1 M46,143h1 M71,143h1 M94,143h1 M114,143h1 M23,144h1 M43,144h1 M63,144h1 M94,144h1 M114,144h1 M19,145h1 M39,145h1 M59,145h1 M90,145h1 M111,145h1 M14,146h1 M35,146h1 M55,146h1 M84,146h1 M104,146h1 M124,146h1 M27,147h1 M47,147h1 M67,147h1 M95,147h1 M115,147h1 M16,148h1 M36,148h1 M56,148h1 M83,148h1 M103,148h1 M123,148h1 M22,149h1 M42,149h1 M62,149h1 M87,149h1 M107,149h1 M1,150h1 M28,150h1 M48,150h1 M68,150h1 M92,150h1 M112,150h1 M10,151h1 M31,151h1 M51,151h1 M72,151h1 M92,151h1 M113,151h1 M8,152h1 M31,152h1 M51,152h1 M71,152h1 M91,152h1 M111,152h1 M0,153h1 M26,153h1 M46,153h1 M66,153h1 M86,153h1 M106,153h1 M126,153h1 M22,154h1 M42,154h1 M62,154h1 M82,154h1 M102,154h1 M122,154h1 M18,155h1 M38,155h1 M58,155h1 M78,155h1 M98,155h1 M118,155h1 M13,156h1 M33,156h1 M53,156h1 M73,156h1 M93,156h1 M114,156h1 M5,157h1 M27,157h1 M47,157h1 M67,157h1 M87,157h1 M109,157h1 M129,157h1 M22,158h1 M42,158h1 M62,158h1 M82,158h1 M102,158h1 M122,158h1 M15,159h1 M35,159h1 M55,159h1 M75,159h1 M95,159h1 M115,159h1 M4,160h1 M26,160h1 M46,160h1 M66,160h1 M86,160h1 M106,160h1 M126,160h1 M18,161h1 M38,161h1 M58,161h1 M78,161h1 M98,161h1 M118,161h1 M8,162h1 M30,162h1 M50,162h1 M70,162h1 M90,162h1 M110,162h1 M130,162h1 M18,163h1 M38,163h1 M58,163h1 M78,163h1 M98,163h1 M119,163h1 M10,164h1 M30,164h1 M50,164h1 M70,164h1 M90,164h1 M110,164h1 M131,164h1 M21,165h1 M41,165h1 M61,165h1 M81,165h1 M101,165h1 M121,165h1 M7,166h1 M28,166h1 M48,166h1 M68,166h1 M88,166h1 M109,166h1 M129,166h1 M19,167h1 M39,167h1 M59,167h1 M79,167h1 M100,167h1 M120,167h1 M8,168h1 M28,168h1 M48,168h1 M68,168h1 M88,168h1 M108,168h1 M128,168h1 M14,169h1 M34,169h1 M54,169h1 M74,169h1 M94,169h1 M115,169h1" stroke="currentColor" stroke-width="1"/></g>
<g opacity="0"><animate attributeName="opacity" values="0;1" dur="0.9s" begin="0.89s" fill="freeze" calcMode="spline" keyTimes="0;1" keySplines=".4 0 .2 1"/><path d="M50,3h1 M138,3h1 M122,6h1 M147,7h1 M97,10h1 M44,12h1 M68,14h1 M41,16h1 M60,18h1 M47,20h1 M80,22h1 M95,24h1 M113,26h1 M3,29h1 M71,31h1 M117,33h1 M142,35h1 M28,38h1 M38,40h1 M79,42h1 M4,45h1 M37,47h1 M64,49h1 M144,51h1 M90,54h1 M65,56h1 M63,57h1 M49,58h1 M78,58h1 M67,59h1 M125,59h1 M71,60h1 M54,61h1 M74,61h1 M52,62h1 M72,62h1 M127,62h1 M69,63h1 M89,63h1 M62,64h1 M82,64h1 M57,65h1 M77,65h1 M31,66h1 M68,66h1 M88,66h1 M63,67h1 M83,67h1 M53,68h1 M73,68h1 M93,68h1 M65,69h1 M85,69h1 M53,70h1 M74,70h1 M94,70h1 M64,71h1 M86,71h1 M53,72h1 M78,72h1 M2,73h1 M72,73h1 M92,73h1 M56,74h1 M87,74h1 M48,75h1 M85,75h1 M51,76h1 M147,76h1 M95,77h1 M58,78h1 M48,79h1 M95,79h1 M62,80h1 M51,81h1 M127,81h1 M82,82h1 M51,83h1 M42,84h1 M32,85h1 M75,85h1 M54,86h1 M84,86h1 M45,87h1 M76,87h1 M144,87h1 M60,88h1 M84,88h1 M49,89h1 M89,89h1 M49,90h1 M80,90h1 M48,91h1 M78,91h1 M31,92h1 M64,92h1 M11,93h1 M59,93h1 M105,93h1 M55,94h1 M25,95h1 M69,95h1 M33,96h1 M67,96h1 M34,97h1 M83,97h1 M62,98h1 M35,99h1 M99,99h1 M53,100h1 M31,101h1 M86,101h1 M50,102h1 M5,103h1 M73,103h1 M43,104h1 M124,104h1 M63,105h1 M41,106h1 M79,106h1 M41,107h1 M71,107h1 M35,108h1 M73,108h1 M44,109h1 M134,109h1 M51,110h1 M6,111h1 M64,111h1 M140,111h1 M49,112h1 M122,112h1 M59,113h1 M111,113h1 M45,114h1 M68,114h1 M35,115h1 M66,115h1 M144,115h1 M47,116h1 M119,116h1 M52,117h1 M5,118h1 M52,118h1 M2,119h1 M58,119h1 M101,119h1 M46,120h1 M72,120h1 M32,121h1 M65,121h1 M11,122h1 M54,122h1 M91,122h1 M48,123h1 M82,123h1 M30,124h1 M58,124h1 M143,124h1 M50,125h1 M80,125h1 M22,126h1 M53,126h1 M88,126h1 M34,127h1 M57,127h1 M91,127h1 M26,128h1 M52,128h1 M74,128h1 M99,128h1 M40,129h1 M60,129h1 M87,129h1 M5,130h1 M44,130h1 M65,130h1 M94,130h1 M27,131h1 M50,131h1 M70,131h1 M97,131h1 M23,132h1 M49,132h1 M78,132h1 M101,132h1 M35,133h1 M55,133h1 M85,133h1 M105,133h1 M34,134h1 M54,134h1 M83,134h1 M103,134h1 M28,135h1 M48,135h1 M70,135h1 M96,135h1 M5,136h1 M42,136h1 M62,136h1 M89,136h1 M109,136h1 M29,137h1 M49,137h1 M71,137h1 M95,137h1 M115,137h1 M36,138h1 M56,138h1 M85,138h1 M105,138h1 M13,139h1 M41,139h1 M61,139h1 M87,139h1 M108,139h1 M24,140h1 M44,140h1 M68,140h1 M95,140h1 M115,140h1 M28,141h1 M48,141h1 M76,141h1 M96,141h1 M116,141h1 M28,142h1 M48,142h1 M78,142h1 M98,142h1 M118,142h1 M27,143h1 M47,143h1 M74,143h1 M95,143h1 M115,143h1 M24,144h1 M44,144h1 M64,144h1 M95,144h1 M115,144h1 M20,145h1 M40,145h1 M60,145h1 M91,145h1 M112,145h1 M15,146h1 M36,146h1 M56,146h1 M85,146h1 M105,146h1 M125,146h1 M28,147h1 M48,147h1 M76,147h1 M96,147h1 M116,147h1 M17,148h1 M37,148h1 M57,148h1 M84,148h1 M104,148h1 M124,148h1 M23,149h1 M43,149h1 M63,149h1 M88,149h1 M108,149h1 M5,150h1 M29,150h1 M49,150h1 M73,150h1 M93,150h1 M113,150h1 M11,151h1 M32,151h1 M52,151h1 M73,151h1 M93,151h1 M114,151h1 M9,152h1 M32,152h1 M52,152h1 M72,152h1 M92,152h1 M112,152h1 M4,153h1 M27,153h1 M47,153h1 M67,153h1 M87,153h1 M107,153h1 M127,153h1 M23,154h1 M43,154h1 M63,154h1 M83,154h1 M103,154h1 M123,154h1 M19,155h1 M39,155h1 M59,155h1 M79,155h1 M99,155h1 M119,155h1 M14,156h1 M34,156h1 M54,156h1 M74,156h1 M94,156h1 M115,156h1 M6,157h1 M28,157h1 M48,157h1 M68,157h1 M88,157h1 M110,157h1 M145,157h1 M23,158h1 M43,158h1 M63,158h1 M83,158h1 M103,158h1 M123,158h1 M16,159h1 M36,159h1 M56,159h1 M76,159h1 M96,159h1 M116,159h1 M5,160h1 M27,160h1 M47,160h1 M67,160h1 M87,160h1 M107,160h1 M127,160h1 M19,161h1 M39,161h1 M59,161h1 M79,161h1 M99,161h1 M119,161h1 M11,162h1 M31,162h1 M51,162h1 M71,162h1 M91,162h1 M111,162h1 M131,162h1 M19,163h1 M39,163h1 M59,163h1 M79,163h1 M99,163h1 M120,163h1 M11,164h1 M31,164h1 M51,164h1 M71,164h1 M91,164h1 M111,164h1 M132,164h1 M22,165h1 M42,165h1 M62,165h1 M82,165h1 M102,165h1 M122,165h1 M8,166h1 M29,166h1 M49,166h1 M69,166h1 M89,166h1 M110,166h1 M130,166h1 M20,167h1 M40,167h1 M60,167h1 M80,167h1 M101,167h1 M121,167h1 M9,168h1 M29,168h1 M49,168h1 M69,168h1 M89,168h1 M109,168h1 M129,168h1 M15,169h1 M35,169h1 M55,169h1 M75,169h1 M95,169h1 M116,169h1" stroke="currentColor" stroke-width="1"/></g>
<g opacity="0"><animate attributeName="opacity" values="0;1" dur="0.9s" begin="0.27s" fill="freeze" calcMode="spline" keyTimes="0;1" keySplines=".4 0 .2 1"/><path d="M55,3h1 M141,3h1 M132,6h1 M2,8h1 M133,10h1 M48,12h1 M79,14h1 M45,16h1 M74,18h1 M63,20h1 M101,22h1 M118,24h1 M145,26h1 M8,29h1 M80,31h1 M130,33h1 M2,36h1 M47,38h1 M54,40h1 M107,42h1 M9,45h1 M52,47h1 M92,49h1 M2,52h1 M117,54h1 M66,56h1 M64,57h1 M59,58h1 M79,58h1 M68,59h1 M141,59h1 M72,60h1 M55,61h1 M75,61h1 M53,62h1 M73,62h1 M143,62h1 M70,63h1 M90,63h1 M63,64h1 M83,64h1 M58,65h1 M78,65h1 M35,66h1 M69,66h1 M89,66h1 M64,67h1 M84,67h1 M54,68h1 M74,68h1 M99,68h1 M66,69h1 M86,69h1 M54,70h1 M75,70h1 M111,70h1 M66,71h1 M87,71h1 M54,72h1 M79,72h1 M8,73h1 M73,73h1 M93,73h1 M57,74h1 M88,74h1 M49,75h1 M86,75h1 M52,76h1 M4,77h1 M96,77h1 M61,78h1 M49,79h1 M96,79h1 M81,80h1 M54,81h1 M132,81h1 M89,82h1 M53,83h1 M44,84h1 M34,85h1 M79,85h1 M55,86h1 M85,86h1 M47,87h1 M77,87h1 M2,88h1 M61,88h1 M86,88h1 M50,89h1 M93,89h1 M51,90h1 M83,90h1 M49,91h1 M79,91h1 M36,92h1 M66,92h1 M14,93h1 M60,93h1 M123,93h1 M56,94h1 M28,95h1 M74,95h1 M35,96h1 M69,96h1 M37,97h1 M86,97h1 M65,98h1 M38,99h1 M108,99h1 M58,100h1 M34,101h1 M93,101h1 M52,102h1 M9,103h1 M76,103h1 M44,104h1 M139,104h1 M64,105h1 M43,106h1 M89,106h1 M43,107h1 M72,107h1 M37,108h1 M74,108h1 M46,109h1 M9,110h1 M53,110h1 M14,111h1 M65,111h1 M4,112h1 M51,112h1 M125,112h1 M60,113h1 M118,113h1 M46,114h1 M70,114h1 M37,115h1 M67,115h1 M5,116h1 M49,116h1 M122,116h1 M54,117h1 M8,118h1 M53,118h1 M16,119h1 M60,119h1 M117,119h1 M48,120h1 M74,120h1 M34,121h1 M67,121h1 M14,122h1 M55,122h1 M110,122h1 M50,123h1 M83,123h1 M32,124h1 M59,124h1 M0,125h1 M51,125h1 M81,125h1 M25,126h1 M54,126h1 M89,126h1 M36,127h1 M58,127h1 M92,127h1 M28,128h1 M53,128h1 M75,128h1 M100,128h1 M41,129h1 M62,129h1 M88,129h1 M7,130h1 M45,130h1 M66,130h1 M95,130h1 M29,131h1 M51,131h1 M71,131h1 M98,131h1 M26,132h1 M50,132h1 M81,132h1 M102,132h1 M36,133h1 M56,133h1 M86,133h1 M106,133h1 M35,134h1 M55,134h1 M84,134h1 M104,134h1 M29,135h1 M49,135h1 M72,135h1 M97,135h1 M7,136h1 M43,136h1 M63,136h1 M90,136h1 M110,136h1 M30,137h1 M50,137h1 M72,137h1 M96,137h1 M127,137h1 M37,138h1 M57,138h1 M86,138h1 M106,138h1 M22,139h1 M42,139h1 M62,139h1 M88,139h1 M109,139h1 M25,140h1 M45,140h1 M72,140h1 M96,140h1 M116,140h1 M29,141h1 M49,141h1 M77,141h1 M97,141h1 M117,141h1 M29,142h1 M49,142h1 M79,142h1 M99,142h1 M119,142h1 M28,143h1 M48,143h1 M75,143h1 M96,143h1 M116,143h1 M25,144h1 M45,144h1 M68,144h1 M96,144h1 M116,144h1 M21,145h1 M41,145h1 M61,145h1 M92,145h1 M113,145h1 M17,146h1 M37,146h1 M57,146h1 M86,146h1 M106,146h1 M142,146h1 M29,147h1 M49,147h1 M77,147h1 M97,147h1 M117,147h1 M18,148h1 M38,148h1 M58,148h1 M85,148h1 M105,148h1 M125,148h1 M24,149h1 M44,149h1 M64,149h1 M89,149h1 M109,149h1 M7,150h1 M30,150h1 M50,150h1 M74,150h1 M94,150h1 M114,150h1 M12,151h1 M33,151h1 M53,151h1 M74,151h1 M94,151h1 M115,151h1 M12,152h1 M33,152h1 M53,152h1 M73,152h1 M93,152h1 M113,152h1 M6,153h1 M28,153h1 M48,153h1 M68,153h1 M88,153h1 M108,153h1 M128,153h1 M24,154h1 M44,154h1 M64,154h1 M84,154h1 M104,154h1 M124,154h1 M20,155h1 M40,155h1 M60,155h1 M80,155h1 M100,155h1 M120,155h1 M15,156h1 M35,156h1 M55,156h1 M75,156h1 M95,156h1 M116,156h1 M7,157h1 M29,157h1 M49,157h1 M69,157h1 M90,157h1 M111,157h1 M1,158h1 M24,158h1 M44,158h1 M64,158h1 M84,158h1 M104,158h1 M124,158h1 M17,159h1 M37,159h1 M57,159h1 M77,159h1 M97,159h1 M117,159h1 M7,160h1 M28,160h1 M48,160h1 M68,160h1 M88,160h1 M108,160h1 M128,160h1 M20,161h1 M40,161h1 M60,161h1 M80,161h1 M100,161h1 M120,161h1 M12,162h1 M32,162h1 M52,162h1 M72,162h1 M92,162h1 M112,162h1 M136,162h1 M20,163h1 M40,163h1 M60,163h1 M80,163h1 M101,163h1 M121,163h1 M12,164h1 M32,164h1 M52,164h1 M72,164h1 M92,164h1 M113,164h1 M140,164h1 M23,165h1 M43,165h1 M63,165h1 M83,165h1 M103,165h1 M123,165h1 M10,166h1 M30,166h1 M50,166h1 M70,166h1 M90,166h1 M111,166h1 M131,166h1 M21,167h1 M41,167h1 M61,167h1 M81,167h1 M102,167h1 M122,167h1 M10,168h1 M30,168h1 M50,168h1 M70,168h1 M90,168h1 M110,168h1 M130,168h1 M16,169h1 M36,169h1 M56,169h1 M76,169h1 M96,169h1 M117,169h1" stroke="currentColor" stroke-width="1"/></g>
<g opacity="0"><animate attributeName="opacity" values="0;1" dur="0.9s" begin="0.42s" fill="freeze" calcMode="spline" keyTimes="0;1" keySplines=".4 0 .2 1"/><path d="M59,3h1 M144,3h1 M136,6h1 M5,8h1 M137,10h1 M62,12h1 M87,14h1 M49,16h1 M87,18h1 M67,20h1 M115,22h1 M123,24h1 M5,27h1 M15,29h1 M114,31h1 M145,33h1 M19,36h1 M81,38h1 M90,40h1 M136,42h1 M21,45h1 M88,47h1 M98,49h1 M9,52h1 M141,54h1 M67,56h1 M65,57h1 M60,58h1 M80,58h1 M69,59h1 M147,59h1 M73,60h1 M56,61h1 M76,61h1 M54,62h1 M74,62h1 M51,63h1 M71,63h1 M105,63h1 M64,64h1 M84,64h1 M59,65h1 M79,65h1 M39,66h1 M70,66h1 M90,66h1 M65,67h1 M85,67h1 M55,68h1 M75,68h1 M132,68h1 M67,69h1 M87,69h1 M55,70h1 M76,70h1 M128,70h1 M67,71h1 M88,71h1 M55,72h1 M80,72h1 M14,73h1 M74,73h1 M94,73h1 M60,74h1 M89,74h1 M50,75h1 M89,75h1 M54,76h1 M9,77h1 M107,77h1 M67,78h1 M50,79h1 M112,79h1 M91,80h1 M56,81h1 M136,81h1 M93,82h1 M55,83h1 M46,84h1 M37,85h1 M85,85h1 M56,86h1 M86,86h1 M48,87h1 M78,87h1 M12,88h1 M62,88h1 M87,88h1 M53,89h1 M94,89h1 M52,90h1 M85,90h1 M52,91h1 M80,91h1 M38,92h1 M67,92h1 M25,93h1 M61,93h1 M135,93h1 M57,94h1 M31,95h1 M77,95h1 M37,96h1 M78,96h1 M39,97h1 M95,97h1 M66,98h1 M40,99h1 M112,99h1 M63,100h1 M37,101h1 M101,101h1 M54,102h1 M23,103h1 M78,103h1 M46,104h1 M0,105h1 M67,105h1 M45,106h1 M91,106h1 M44,107h1 M73,107h1 M39,108h1 M76,108h1 M47,109h1 M16,110h1 M55,110h1 M28,111h1 M66,111h1 M9,112h1 M53,112h1 M136,112h1 M61,113h1 M133,113h1 M48,114h1 M71,114h1 M40,115h1 M68,115h1 M8,116h1 M50,116h1 M126,116h1 M55,117h1 M11,118h1 M54,118h1 M21,119h1 M61,119h1 M125,119h1 M49,120h1 M77,120h1 M36,121h1 M69,121h1 M19,122h1 M56,122h1 M122,122h1 M51,123h1 M84,123h1 M34,124h1 M61,124h1 M3,125h1 M52,125h1 M82,125h1 M28,126h1 M55,126h1 M90,126h1 M37,127h1 M60,127h1 M93,127h1 M30,128h1 M54,128h1 M76,128h1 M122,128h1 M42,129h1 M63,129h1 M89,129h1 M9,130h1 M46,130h1 M67,130h1 M96,130h1 M31,131h1 M52,131h1 M72,131h1 M99,131h1 M30,132h1 M51,132h1 M83,132h1 M103,132h1 M37,133h1 M57,133h1 M87,133h1 M107,133h1 M36,134h1 M56,134h1 M85,134h1 M105,134h1 M30,135h1 M50,135h1 M74,135h1 M98,135h1 M15,136h1 M44,136h1 M65,136h1 M91,136h1 M111,136h1 M31,137h1 M51,137h1 M74,137h1 M97,137h1 M134,137h1 M38,138h1 M58,138h1 M87,138h1 M107,138h1 M23,139h1 M43,139h1 M63,139h1 M89,139h1 M110,139h1 M26,140h1 M46,140h1 M77,140h1 M97,140h1 M117,140h1 M30,141h1 M50,141h1 M78,141h1 M98,141h1 M118,141h1 M30,142h1 M50,142h1 M80,142h1 M100,142h1 M120,142h1 M29,143h1 M49,143h1 M76,143h1 M97,143h1 M117,143h1 M26,144h1 M46,144h1 M71,144h1 M97,144h1 M117,144h1 M22,145h1 M42,145h1 M62,145h1 M94,145h1 M114,145h1 M18,146h1 M38,146h1 M58,146h1 M87,146h1 M107,146h1 M0,147h1 M30,147h1 M50,147h1 M78,147h1 M98,147h1 M118,147h1 M19,148h1 M39,148h1 M59,148h1 M86,148h1 M106,148h1 M126,148h1 M25,149h1 M45,149h1 M65,149h1 M90,149h1 M110,149h1 M8,150h1 M31,150h1 M51,150h1 M75,150h1 M95,150h1 M115,150h1 M13,151h1 M34,151h1 M54,151h1 M75,151h1 M95,151h1 M116,151h1 M14,152h1 M34,152h1 M54,152h1 M74,152h1 M94,152h1 M114,152h1 M7,153h1 M29,153h1 M49,153h1 M69,153h1 M89,153h1 M109,153h1 M140,153h1 M25,154h1 M45,154h1 M65,154h1 M85,154h1 M105,154h1 M125,154h1 M21,155h1 M41,155h1 M61,155h1 M81,155h1 M101,155h1 M121,155h1 M16,156h1 M36,156h1 M56,156h1 M76,156h1 M96,156h1 M117,156h1 M9,157h1 M30,157h1 M50,157h1 M70,157h1 M91,157h1 M112,157h1 M3,158h1 M25,158h1 M45,158h1 M65,158h1 M85,158h1 M105,158h1 M125,158h1 M18,159h1 M38,159h1 M58,159h1 M78,159h1 M98,159h1 M118,159h1 M8,160h1 M29,160h1 M49,160h1 M69,160h1 M89,160h1 M109,160h1 M129,160h1 M21,161h1 M41,161h1 M61,161h1 M81,161h1 M101,161h1 M121,161h1 M13,162h1 M33,162h1 M53,162h1 M73,162h1 M93,162h1 M113,162h1 M139,162h1 M21,163h1 M41,163h1 M61,163h1 M81,163h1 M102,163h1 M122,163h1 M13,164h1 M33,164h1 M53,164h1 M73,164h1 M93,164h1 M114,164h1 M143,164h1 M24,165h1 M44,165h1 M64,165h1 M84,165h1 M104,165h1 M124,165h1 M11,166h1 M31,166h1 M51,166h1 M71,166h1 M91,166h1 M112,166h1 M132,166h1 M22,167h1 M42,167h1 M62,167h1 M82,167h1 M103,167h1 M123,167h1 M11,168h1 M31,168h1 M51,168h1 M71,168h1 M91,168h1 M111,168h1 M131,168h1 M17,169h1 M37,169h1 M57,169h1 M77,169h1 M97,169h1 M118,169h1" stroke="currentColor" stroke-width="1"/></g>
<g opacity="0"><animate attributeName="opacity" values="0;1" dur="0.9s" begin="1.07s" fill="freeze" calcMode="spline" keyTimes="0;1" keySplines=".4 0 .2 1"/><path d="M63,3h1 M147,3h1 M27,7h1 M9,8h1 M142,10h1 M90,12h1 M98,14h1 M64,16h1 M122,18h1 M77,20h1 M4,23h1 M127,24h1 M42,27h1 M29,29h1 M120,31h1 M14,34h1 M57,36h1 M105,38h1 M126,40h1 M140,42h1 M25,45h1 M107,47h1 M111,49h1 M21,52h1 M146,54h1 M68,56h1 M66,57h1 M61,58h1 M81,58h1 M70,59h1 M9,60h1 M74,60h1 M57,61h1 M77,61h1 M55,62h1 M75,62h1 M52,63h1 M72,63h1 M109,63h1 M65,64h1 M85,64h1 M60,65h1 M80,65h1 M50,66h1 M71,66h1 M91,66h1 M66,67h1 M86,67h1 M56,68h1 M76,68h1 M8,69h1 M68,69h1 M88,69h1 M56,70h1 M77,70h1 M139,70h1 M69,71h1 M89,71h1 M56,72h1 M81,72h1 M19,73h1 M75,73h1 M95,73h1 M63,74h1 M90,74h1 M51,75h1 M90,75h1 M56,76h1 M13,77h1 M115,77h1 M70,78h1 M52,79h1 M140,79h1 M92,80h1 M58,81h1 M2,82h1 M94,82h1 M57,83h1 M48,84h1 M38,85h1 M89,85h1 M57,86h1 M87,86h1 M49,87h1 M79,87h1 M30,88h1 M63,88h1 M88,88h1 M55,89h1 M106,89h1 M54,90h1 M90,90h1 M54,91h1 M81,91h1 M40,92h1 M68,92h1 M27,93h1 M64,93h1 M140,93h1 M59,94h1 M33,95h1 M78,95h1 M40,96h1 M79,96h1 M41,97h1 M147,97h1 M67,98h1 M42,99h1 M119,99h1 M65,100h1 M39,101h1 M105,101h1 M58,102h1 M26,103h1 M81,103h1 M47,104h1 M4,105h1 M68,105h1 M46,106h1 M109,106h1 M46,107h1 M74,107h1 M41,108h1 M80,108h1 M49,109h1 M19,110h1 M58,110h1 M32,111h1 M67,111h1 M12,112h1 M55,112h1 M1,113h1 M62,113h1 M147,113h1 M49,114h1 M73,114h1 M43,115h1 M69,115h1 M11,116h1 M51,116h1 M135,116h1 M57,117h1 M15,118h1 M56,118h1 M25,119h1 M63,119h1 M142,119h1 M50,120h1 M80,120h1 M38,121h1 M73,121h1 M21,122h1 M57,122h1 M134,122h1 M52,123h1 M88,123h1 M36,124h1 M62,124h1 M16,125h1 M53,125h1 M88,125h1 M30,126h1 M56,126h1 M91,126h1 M39,127h1 M61,127h1 M94,127h1 M32,128h1 M55,128h1 M77,128h1 M133,128h1 M43,129h1 M64,129h1 M90,129h1 M12,130h1 M47,130h1 M68,130h1 M97,130h1 M33,131h1 M53,131h1 M73,131h1 M100,131h1 M32,132h1 M52,132h1 M84,132h1 M104,132h1 M38,133h1 M58,133h1 M88,133h1 M108,133h1 M37,134h1 M57,134h1 M86,134h1 M106,134h1 M31,135h1 M51,135h1 M76,135h1 M99,135h1 M25,136h1 M45,136h1 M66,136h1 M92,136h1 M112,136h1 M32,137h1 M52,137h1 M76,137h1 M98,137h1 M140,137h1 M39,138h1 M59,138h1 M88,138h1 M108,138h1 M24,139h1 M44,139h1 M64,139h1 M90,139h1 M111,139h1 M27,140h1 M47,140h1 M78,140h1 M98,140h1 M118,140h1 M31,141h1 M51,141h1 M79,141h1 M99,141h1 M119,141h1 M31,142h1 M51,142h1 M81,142h1 M101,142h1 M121,142h1 M30,143h1 M50,143h1 M77,143h1 M98,143h1 M118,143h1 M27,144h1 M47,144h1 M73,144h1 M98,144h1 M118,144h1 M23,145h1 M43,145h1 M63,145h1 M95,145h1 M115,145h1 M19,146h1 M39,146h1 M59,146h1 M88,146h1 M108,146h1 M2,147h1 M31,147h1 M51,147h1 M79,147h1 M99,147h1 M119,147h1 M20,148h1 M40,148h1 M60,148h1 M87,148h1 M107,148h1 M132,148h1 M26,149h1 M46,149h1 M66,149h1 M91,149h1 M111,149h1 M10,150h1 M32,150h1 M52,150h1 M76,150h1 M96,150h1 M116,150h1 M15,151h1 M35,151h1 M55,151h1 M76,151h1 M96,151h1 M117,151h1 M15,152h1 M35,152h1 M55,152h1 M75,152h1 M95,152h1 M115,152h1 M8,153h1 M30,153h1 M50,153h1 M70,153h1 M90,153h1 M110,153h1 M143,153h1 M26,154h1 M46,154h1 M66,154h1 M86,154h1 M106,154h1 M126,154h1 M22,155h1 M42,155h1 M62,155h1 M82,155h1 M102,155h1 M122,155h1 M17,156h1 M37,156h1 M57,156h1 M77,156h1 M98,156h1 M118,156h1 M11,157h1 M31,157h1 M51,157h1 M71,157h1 M92,157h1 M113,157h1 M4,158h1 M26,158h1 M46,158h1 M66,158h1 M86,158h1 M106,158h1 M126,158h1 M19,159h1 M39,159h1 M59,159h1 M79,159h1 M99,159h1 M119,159h1 M10,160h1 M30,160h1 M50,160h1 M70,160h1 M90,160h1 M110,160h1 M130,160h1 M22,161h1 M42,161h1 M62,161h1 M82,161h1 M102,161h1 M122,161h1 M14,162h1 M34,162h1 M54,162h1 M74,162h1 M94,162h1 M114,162h1 M145,162h1 M22,163h1 M42,163h1 M62,163h1 M82,163h1 M103,163h1 M123,163h1 M14,164h1 M34,164h1 M54,164h1 M74,164h1 M94,164h1 M115,164h1 M1,165h1 M25,165h1 M45,165h1 M65,165h1 M85,165h1 M105,165h1 M125,165h1 M12,166h1 M32,166h1 M52,166h1 M72,166h1 M92,166h1 M113,166h1 M141,166h1 M23,167h1 M43,167h1 M63,167h1 M83,167h1 M104,167h1 M124,167h1 M12,168h1 M32,168h1 M52,168h1 M72,168h1 M92,168h1 M112,168h1 M132,168h1 M18,169h1 M38,169h1 M58,169h1 M78,169h1 M98,169h1 M119,169h1" stroke="currentColor" stroke-width="1"/></g>
<g opacity="0"><animate attributeName="opacity" values="0;1" dur="0.9s" begin="0.62s" fill="freeze" calcMode="spline" keyTimes="0;1" keySplines=".4 0 .2 1"/><path d="M67,3h1 M11,4h1 M31,7h1 M13,8h1 M3,11h1 M94,12h1 M104,14h1 M71,16h1 M136,18h1 M90,20h1 M37,23h1 M131,24h1 M53,27h1 M63,29h1 M135,31h1 M38,34h1 M64,36h1 M109,38h1 M7,41h1 M18,43h1 M55,45h1 M114,47h1 M120,49h1 M26,52h1 M4,55h1 M69,56h1 M67,57h1 M62,58h1 M108,58h1 M71,59h1 M18,60h1 M75,60h1 M58,61h1 M78,61h1 M56,62h1 M76,62h1 M53,63h1 M73,63h1 M124,63h1 M66,64h1 M86,64h1 M61,65h1 M81,65h1 M52,66h1 M72,66h1 M111,66h1 M67,67h1 M87,67h1 M57,68h1 M77,68h1 M20,69h1 M69,69h1 M89,69h1 M57,70h1 M78,70h1 M11,71h1 M70,71h1 M90,71h1 M57,72h1 M82,72h1 M49,73h1 M76,73h1 M100,73h1 M67,74h1 M91,74h1 M52,75h1 M91,75h1 M58,76h1 M42,77h1 M125,77h1 M92,78h1 M55,79h1 M4,80h1 M93,80h1 M60,81h1 M6,82h1 M95,82h1 M59,83h1 M49,84h1 M41,85h1 M94,85h1 M58,86h1 M93,86h1 M51,87h1 M80,87h1 M33,88h1 M64,88h1 M89,88h1 M57,89h1 M121,89h1 M56,90h1 M93,90h1 M55,91h1 M82,91h1 M42,92h1 M75,92h1 M29,93h1 M66,93h1 M146,93h1 M60,94h1 M36,95h1 M79,95h1 M42,96h1 M81,96h1 M43,97h1 M8,98h1 M71,98h1 M44,99h1 M140,99h1 M66,100h1 M41,101h1 M131,101h1 M63,102h1 M31,103h1 M93,103h1 M49,104h1 M14,105h1 M75,105h1 M48,106h1 M120,106h1 M47,107h1 M75,107h1 M43,108h1 M89,108h1 M50,109h1 M22,110h1 M60,110h1 M35,111h1 M68,111h1 M17,112h1 M57,112h1 M28,113h1 M64,113h1 M4,114h1 M50,114h1 M75,114h1 M45,115h1 M70,115h1 M14,116h1 M53,116h1 M138,116h1 M59,117h1 M18,118h1 M57,118h1 M27,119h1 M64,119h1 M147,119h1 M52,120h1 M81,120h1 M40,121h1 M75,121h1 M24,122h1 M58,122h1 M140,122h1 M53,123h1 M89,123h1 M38,124h1 M64,124h1 M23,125h1 M54,125h1 M89,125h1 M32,126h1 M57,126h1 M92,126h1 M41,127h1 M62,127h1 M95,127h1 M33,128h1 M56,128h1 M78,128h1 M143,128h1 M44,129h1 M65,129h1 M91,129h1 M18,130h1 M48,130h1 M69,130h1 M98,130h1 M34,131h1 M54,131h1 M75,131h1 M101,131h1 M33,132h1 M53,132h1 M85,132h1 M105,132h1 M39,133h1 M59,133h1 M89,133h1 M109,133h1 M38,134h1 M58,134h1 M87,134h1 M107,134h1 M32,135h1 M52,135h1 M79,135h1 M100,135h1 M26,136h1 M46,136h1 M67,136h1 M93,136h1 M113,136h1 M33,137h1 M53,137h1 M79,137h1 M99,137h1 M146,137h1 M40,138h1 M60,138h1 M89,138h1 M109,138h1 M25,139h1 M45,139h1 M65,139h1 M92,139h1 M112,139h1 M28,140h1 M48,140h1 M79,140h1 M99,140h1 M119,140h1 M32,141h1 M52,141h1 M80,141h1 M100,141h1 M120,141h1 M32,142h1 M52,142h1 M82,142h1 M102,142h1 M131,142h1 M31,143h1 M51,143h1 M79,143h1 M99,143h1 M119,143h1 M28,144h1 M48,144h1 M78,144h1 M99,144h1 M119,144h1 M24,145h1 M44,145h1 M64,145h1 M96,145h1 M116,145h1 M20,146h1 M40,146h1 M60,146h1 M89,146h1 M109,146h1 M10,147h1 M32,147h1 M52,147h1 M80,147h1 M100,147h1 M120,147h1 M21,148h1 M41,148h1 M61,148h1 M88,148h1 M108,148h1 M139,148h1 M27,149h1 M47,149h1 M67,149h1 M92,149h1 M112,149h1 M12,150h1 M33,150h1 M53,150h1 M77,150h1 M97,150h1 M117,150h1 M16,151h1 M36,151h1 M56,151h1 M77,151h1 M97,151h1 M118,151h1 M16,152h1 M36,152h1 M56,152h1 M76,152h1 M96,152h1 M116,152h1 M10,153h1 M31,153h1 M51,153h1 M71,153h1 M91,153h1 M111,153h1 M3,154h1 M27,154h1 M47,154h1 M67,154h1 M87,154h1 M107,154h1 M127,154h1 M23,155h1 M43,155h1 M63,155h1 M83,155h1 M103,155h1 M123,155h1 M18,156h1 M38,156h1 M58,156h1 M78,156h1 M99,156h1 M119,156h1 M12,157h1 M32,157h1 M52,157h1 M72,157h1 M93,157h1 M114,157h1 M6,158h1 M27,158h1 M47,158h1 M67,158h1 M87,158h1 M107,158h1 M127,158h1 M20,159h1 M40,159h1 M60,159h1 M80,159h1 M100,159h1 M120,159h1 M11,160h1 M31,160h1 M51,160h1 M71,160h1 M91,160h1 M111,160h1 M144,160h1 M23,161h1 M43,161h1 M63,161h1 M83,161h1 M103,161h1 M123,161h1 M15,162h1 M35,162h1 M55,162h1 M75,162h1 M95,162h1 M115,162h1 M148,162h1 M23,163h1 M43,163h1 M63,163h1 M83,163h1 M104,163h1 M124,163h1 M15,164h1 M35,164h1 M55,164h1 M75,164h1 M95,164h1 M116,164h1 M3,165h1 M26,165h1 M46,165h1 M66,165h1 M86,165h1 M106,165h1 M126,165h1 M13,166h1 M33,166h1 M53,166h1 M73,166h1 M93,166h1 M114,166h1 M1,167h1 M24,167h1 M44,167h1 M64,167h1 M84,167h1 M105,167h1 M125,167h1 M13,168h1 M33,168h1 M53,168h1 M73,168h1 M93,168h1 M113,168h1 M133,168h1 M19,169h1 M39,169h1 M59,169h1 M79,169h1 M99,169h1 M120,169h1" stroke="currentColor" stroke-width="1"/></g>
<g opacity="0"><animate attributeName="opacity" values="0;1" dur="0.9s" begin="1.05s" fill="freeze" calcMode="spline" keyTimes="0;1" keySplines=".4 0 .2 1"/><path d="M71,3h1 M1,5h1 M42,7h1 M39,8h1 M7,11h1 M112,12h1 M109,14h1 M91,16h1 M143,18h1 M94,20h1 M41,23h1 M136,24h1 M59,27h1 M85,29h1 M2,32h1 M54,34h1 M78,36h1 M116,38h1 M44,41h1 M36,43h1 M104,45h1 M11,48h1 M132,49h1 M34,52h1 M18,55h1 M70,56h1 M68,57h1 M63,58h1 M116,58h1 M72,59h1 M56,60h1 M76,60h1 M59,61h1 M79,61h1 M57,62h1 M77,62h1 M54,63h1 M74,63h1 M139,63h1 M67,64h1 M87,64h1 M62,65h1 M82,65h1 M53,66h1 M73,66h1 M115,66h1 M68,67h1 M88,67h1 M58,68h1 M78,68h1 M45,69h1 M70,69h1 M90,69h1 M58,70h1 M79,70h1 M24,71h1 M71,71h1 M91,71h1 M58,72h1 M83,72h1 M50,73h1 M77,73h1 M113,73h1 M70,74h1 M92,74h1 M53,75h1 M92,75h1 M61,76h1 M44,77h1 M136,77h1 M93,78h1 M57,79h1 M10,80h1 M94,80h1 M63,81h1 M19,82h1 M121,82h1 M64,83h1 M52,84h1 M43,85h1 M104,85h1 M59,86h1 M94,86h1 M53,87h1 M81,87h1 M36,88h1 M65,88h1 M93,88h1 M61,89h1 M147,89h1 M57,90h1 M94,90h1 M56,91h1 M83,91h1 M44,92h1 M77,92h1 M32,93h1 M67,93h1 M1,94h1 M64,94h1 M39,95h1 M80,95h1 M44,96h1 M82,96h1 M45,97h1 M17,98h1 M88,98h1 M46,99h1 M144,99h1 M68,100h1 M43,101h1 M15,102h1 M64,102h1 M35,103h1 M118,103h1 M50,104h1 M25,105h1 M78,105h1 M49,106h1 M135,106h1 M49,107h1 M81,107h1 M45,108h1 M91,108h1 M52,109h1 M24,110h1 M62,110h1 M37,111h1 M71,111h1 M20,112h1 M59,112h1 M31,113h1 M66,113h1 M7,114h1 M51,114h1 M76,114h1 M47,115h1 M71,115h1 M17,116h1 M54,116h1 M0,117h1 M61,117h1 M20,118h1 M59,118h1 M29,119h1 M66,119h1 M4,120h1 M53,120h1 M83,120h1 M42,121h1 M79,121h1 M26,122h1 M59,122h1 M2,123h1 M54,123h1 M90,123h1 M40,124h1 M67,124h1 M25,125h1 M55,125h1 M90,125h1 M34,126h1 M58,126h1 M93,126h1 M42,127h1 M64,127h1 M96,127h1 M35,128h1 M57,128h1 M80,128h1 M1,129h1 M45,129h1 M66,129h1 M92,129h1 M20,130h1 M49,130h1 M70,130h1 M99,130h1 M35,131h1 M55,131h1 M77,131h1 M102,131h1 M34,132h1 M54,132h1 M86,132h1 M106,132h1 M40,133h1 M60,133h1 M90,133h1 M126,133h1 M39,134h1 M59,134h1 M88,134h1 M108,134h1 M33,135h1 M53,135h1 M81,135h1 M101,135h1 M27,136h1 M47,136h1 M68,136h1 M94,136h1 M114,136h1 M34,137h1 M54,137h1 M80,137h1 M100,137h1 M5,138h1 M41,138h1 M62,138h1 M90,138h1 M110,138h1 M26,139h1 M46,139h1 M67,139h1 M93,139h1 M113,139h1 M29,140h1 M49,140h1 M80,140h1 M100,140h1 M133,140h1 M33,141h1 M53,141h1 M81,141h1 M101,141h1 M128,141h1 M33,142h1 M53,142h1 M83,142h1 M103,142h1 M144,142h1 M32,143h1 M52,143h1 M80,143h1 M100,143h1 M120,143h1 M29,144h1 M49,144h1 M79,144h1 M100,144h1 M120,144h1 M25,145h1 M45,145h1 M76,145h1 M97,145h1 M117,145h1 M21,146h1 M41,146h1 M61,146h1 M90,146h1 M110,146h1 M12,147h1 M33,147h1 M53,147h1 M81,147h1 M101,147h1 M121,147h1 M22,148h1 M42,148h1 M62,148h1 M89,148h1 M109,148h1 M148,148h1 M28,149h1 M48,149h1 M68,149h1 M93,149h1 M113,149h1 M14,150h1 M34,150h1 M54,150h1 M78,150h1 M98,150h1 M118,150h1 M17,151h1 M37,151h1 M57,151h1 M78,151h1 M98,151h1 M119,151h1 M17,152h1 M37,152h1 M57,152h1 M77,152h1 M97,152h1 M117,152h1 M11,153h1 M32,153h1 M52,153h1 M72,153h1 M92,153h1 M112,153h1 M5,154h1 M28,154h1 M48,154h1 M68,154h1 M88,154h1 M108,154h1 M128,154h1 M24,155h1 M44,155h1 M64,155h1 M84,155h1 M104,155h1 M124,155h1 M19,156h1 M39,156h1 M59,156h1 M79,156h1 M100,156h1 M120,156h1 M13,157h1 M33,157h1 M53,157h1 M73,157h1 M94,157h1 M115,157h1 M7,158h1 M28,158h1 M48,158h1 M68,158h1 M88,158h1 M108,158h1 M128,158h1 M21,159h1 M41,159h1 M61,159h1 M81,159h1 M101,159h1 M121,159h1 M12,160h1 M32,160h1 M52,160h1 M72,160h1 M92,160h1 M112,160h1 M0,161h1 M24,161h1 M44,161h1 M64,161h1 M84,161h1 M104,161h1 M124,161h1 M16,162h1 M36,162h1 M56,162h1 M76,162h1 M96,162h1 M116,162h1 M0,163h1 M24,163h1 M44,163h1 M64,163h1 M84,163h1 M105,163h1 M125,163h1 M16,164h1 M36,164h1 M56,164h1 M76,164h1 M96,164h1 M117,164h1 M5,165h1 M27,165h1 M47,165h1 M67,165h1 M87,165h1 M107,165h1 M127,165h1 M14,166h1 M34,166h1 M54,166h1 M74,166h1 M94,166h1 M115,166h1 M2,167h1 M25,167h1 M45,167h1 M65,167h1 M85,167h1 M106,167h1 M126,167h1 M14,168h1 M34,168h1 M54,168h1 M74,168h1 M94,168h1 M114,168h1 M137,168h1 M20,169h1 M40,169h1 M60,169h1 M80,169h1 M100,169h1 M121,169h1" stroke="currentColor" stroke-width="1"/></g>
<g opacity="0"><animate attributeName="opacity" values="0;1" dur="0.9s" begin="0.24s" fill="freeze" calcMode="spline" keyTimes="0;1" keySplines=".4 0 .2 1"/><path d="M75,3h1 M4,5h1 M45,7h1 M91,8h1 M10,11h1 M117,12h1 M135,14h1 M95,16h1 M35,19h1 M125,20h1 M61,23h1 M1,25h1 M67,27h1 M131,29h1 M5,32h1 M74,34h1 M91,36h1 M130,38h1 M95,41h1 M74,43h1 M121,45h1 M33,48h1 M136,49h1 M51,52h1 M31,55h1 M71,56h1 M69,57h1 M64,58h1 M129,58h1 M73,59h1 M57,60h1 M77,60h1 M60,61h1 M80,61h1 M58,62h1 M78,62h1 M55,63h1 M75,63h1 M4,64h1 M68,64h1 M88,64h1 M63,65h1 M83,65h1 M54,66h1 M74,66h1 M141,66h1 M69,67h1 M89,67h1 M59,68h1 M79,68h1 M51,69h1 M71,69h1 M91,69h1 M59,70h1 M80,70h1 M28,71h1 M72,71h1 M92,71h1 M59,72h1 M84,72h1 M51,73h1 M78,73h1 M126,73h1 M71,74h1 M93,74h1 M54,75h1 M93,75h1 M67,76h1 M46,77h1 M143,77h1 M94,78h1 M59,79h1 M16,80h1 M95,80h1 M65,81h1 M37,82h1 M142,82h1 M68,83h1 M54,84h1 M45,85h1 M119,85h1 M60,86h1 M123,86h1 M54,87h1 M82,87h1 M39,88h1 M66,88h1 M94,88h1 M62,89h1 M10,90h1 M58,90h1 M118,90h1 M57,91h1 M84,91h1 M45,92h1 M78,92h1 M33,93h1 M68,93h1 M9,94h1 M67,94h1 M42,95h1 M84,95h1 M46,96h1 M91,96h1 M46,97h1 M25,98h1 M91,98h1 M47,99h1 M19,100h1 M72,100h1 M45,101h1 M20,102h1 M65,102h1 M38,103h1 M128,103h1 M54,104h1 M27,105h1 M82,105h1 M51,106h1 M145,106h1 M50,107h1 M83,107h1 M46,108h1 M100,108h1 M53,109h1 M26,110h1 M63,110h1 M40,111h1 M72,111h1 M22,112h1 M60,112h1 M33,113h1 M68,113h1 M10,114h1 M52,114h1 M77,114h1 M48,115h1 M72,115h1 M19,116h1 M56,116h1 M3,117h1 M63,117h1 M23,118h1 M62,118h1 M31,119h1 M67,119h1 M7,120h1 M54,120h1 M86,120h1 M44,121h1 M82,121h1 M28,122h1 M61,122h1 M17,123h1 M55,123h1 M91,123h1 M42,124h1 M76,124h1 M27,125h1 M56,125h1 M91,125h1 M36,126h1 M59,126h1 M94,126h1 M43,127h1 M65,127h1 M97,127h1 M36,128h1 M58,128h1 M85,128h1 M3,129h1 M46,129h1 M67,129h1 M93,129h1 M23,130h1 M50,130h1 M71,130h1 M100,130h1 M36,131h1 M56,131h1 M79,131h1 M103,131h1 M35,132h1 M55,132h1 M87,132h1 M107,132h1 M41,133h1 M61,133h1 M91,133h1 M139,133h1 M40,134h1 M60,134h1 M89,134h1 M109,134h1 M34,135h1 M54,135h1 M82,135h1 M102,135h1 M28,136h1 M48,136h1 M69,136h1 M95,136h1 M131,136h1 M35,137h1 M55,137h1 M81,137h1 M101,137h1 M15,138h1 M42,138h1 M63,138h1 M91,138h1 M111,138h1 M27,139h1 M47,139h1 M69,139h1 M94,139h1 M114,139h1 M30,140h1 M50,140h1 M81,140h1 M101,140h1 M141,140h1 M34,141h1 M54,141h1 M82,141h1 M102,141h1 M137,141h1 M34,142h1 M54,142h1 M84,142h1 M104,142h1 M1,143h1 M33,143h1 M53,143h1 M81,143h1 M101,143h1 M121,143h1 M30,144h1 M50,144h1 M80,144h1 M101,144h1 M121,144h1 M26,145h1 M46,145h1 M77,145h1 M98,145h1 M118,145h1 M22,146h1 M42,146h1 M62,146h1 M91,146h1 M111,146h1 M13,147h1 M34,147h1 M54,147h1 M82,147h1 M102,147h1 M122,147h1 M23,148h1 M43,148h1 M63,148h1 M90,148h1 M110,148h1 M2,149h1 M29,149h1 M49,149h1 M74,149h1 M94,149h1 M114,149h1 M15,150h1 M35,150h1 M55,150h1 M79,150h1 M99,150h1 M119,150h1 M18,151h1 M38,151h1 M58,151h1 M79,151h1 M99,151h1 M120,151h1 M18,152h1 M38,152h1 M58,152h1 M78,152h1 M98,152h1 M118,152h1 M13,153h1 M33,153h1 M53,153h1 M73,153h1 M93,153h1 M113,153h1 M7,154h1 M29,154h1 M49,154h1 M69,154h1 M89,154h1 M109,154h1 M146,154h1 M25,155h1 M45,155h1 M65,155h1 M85,155h1 M105,155h1 M125,155h1 M20,156h1 M40,156h1 M60,156h1 M80,156h1 M101,156h1 M121,156h1 M14,157h1 M34,157h1 M54,157h1 M74,157h1 M95,157h1 M116,157h1 M8,158h1 M29,158h1 M49,158h1 M69,158h1 M89,158h1 M109,158h1 M129,158h1 M22,159h1 M42,159h1 M62,159h1 M82,159h1 M102,159h1 M122,159h1 M13,160h1 M33,160h1 M53,160h1 M73,160h1 M93,160h1 M113,160h1 M2,161h1 M25,161h1 M45,161h1 M65,161h1 M85,161h1 M105,161h1 M125,161h1 M17,162h1 M37,162h1 M57,162h1 M77,162h1 M97,162h1 M117,162h1 M2,163h1 M25,163h1 M45,163h1 M65,163h1 M85,163h1 M106,163h1 M126,163h1 M17,164h1 M37,164h1 M57,164h1 M77,164h1 M97,164h1 M118,164h1 M6,165h1 M28,165h1 M48,165h1 M68,165h1 M88,165h1 M108,165h1 M128,165h1 M15,166h1 M35,166h1 M55,166h1 M75,166h1 M96,166h1 M116,166h1 M4,167h1 M26,167h1 M46,167h1 M66,167h1 M87,167h1 M107,167h1 M127,167h1 M15,168h1 M35,168h1 M55,168h1 M75,168h1 M95,168h1 M115,168h1 M140,168h1 M21,169h1 M41,169h1 M61,169h1 M81,169h1 M101,169h1 M122,169h1" stroke="currentColor" stroke-width="1"/></g>
</g>
<g font-family="monospace">
<text x="470" y="80" font-size="10" letter-spacing="3" fill="#475569">SYSTEM.INFO</text>
<g opacity="0"><animate attributeName="opacity" from="0" to="1" dur="0.4s" begin="0.50s" fill="freeze"/><animateTransform attributeName="transform" type="translate" values="-8 0;0 0" dur="0.4s" begin="0.50s" fill="freeze"/><text x="470" y="120" font-size="14" textLength="655" lengthAdjust="spacingAndGlyphs" xml:space="preserve"><tspan fill="#0891B2">Subject </tspan><tspan fill="#64748B" opacity="0.35">..........................................................</tspan><tspan fill="#172554" font-weight="600"> Ahmad Sobirin</tspan></text></g>
<g opacity="0"><animate attributeName="opacity" from="0" to="1" dur="0.4s" begin="0.62s" fill="freeze"/><animateTransform attributeName="transform" type="translate" values="-8 0;0 0" dur="0.4s" begin="0.62s" fill="freeze"/><text x="470" y="143" font-size="14" textLength="655" lengthAdjust="spacingAndGlyphs" xml:space="preserve"><tspan fill="#0891B2">Role </tspan><tspan fill="#64748B" opacity="0.35">..........................................................</tspan><tspan fill="#172554" font-weight="600"> Software Engineer &amp; Builder</tspan></text></g>
<g opacity="0"><animate attributeName="opacity" from="0" to="1" dur="0.4s" begin="0.74s" fill="freeze"/><animateTransform attributeName="transform" type="translate" values="-8 0;0 0" dur="0.4s" begin="0.74s" fill="freeze"/><text x="470" y="166" font-size="14" textLength="655" lengthAdjust="spacingAndGlyphs" xml:space="preserve"><tspan fill="#0891B2">Origin </tspan><tspan fill="#64748B" opacity="0.35">..........................................................</tspan><tspan fill="#172554" font-weight="600"> Indonesia</tspan></text></g>
<g opacity="0"><animate attributeName="opacity" from="0" to="1" dur="0.4s" begin="0.86s" fill="freeze"/><animateTransform attributeName="transform" type="translate" values="-8 0;0 0" dur="0.4s" begin="0.86s" fill="freeze"/><text x="470" y="189" font-size="14" textLength="655" lengthAdjust="spacingAndGlyphs" xml:space="preserve"><tspan fill="#0891B2">Education </tspan><tspan fill="#64748B" opacity="0.35">..........................................................</tspan><tspan fill="#172554" font-weight="600"> University of Indonesia</tspan></text></g>
<g opacity="0"><animate attributeName="opacity" from="0" to="1" dur="0.4s" begin="0.98s" fill="freeze"/><animateTransform attributeName="transform" type="translate" values="-8 0;0 0" dur="0.4s" begin="0.98s" fill="freeze"/><text x="470" y="212" font-size="14" textLength="655" lengthAdjust="spacingAndGlyphs" xml:space="preserve"><tspan fill="#0891B2">Status </tspan><tspan fill="#64748B" opacity="0.35">..........................................................</tspan><tspan fill="#172554" font-weight="600"> Learning / Building / Shipping</tspan></text></g>
<g opacity="0"><animate attributeName="opacity" from="0" to="1" dur="0.4s" begin="1.10s" fill="freeze"/><text x="470" y="243" font-size="14" textLength="655" lengthAdjust="spacingAndGlyphs" xml:space="preserve"><tspan fill="#64748B">- Toolchain </tspan><tspan fill="#64748B" opacity="0.35">---------------------------------------------------------------------</tspan></text></g>
<g opacity="0"><animate attributeName="opacity" from="0" to="1" dur="0.4s" begin="1.22s" fill="freeze"/><animateTransform attributeName="transform" type="translate" values="-8 0;0 0" dur="0.4s" begin="1.22s" fill="freeze"/><text x="470" y="266" font-size="14" textLength="655" lengthAdjust="spacingAndGlyphs" xml:space="preserve"><tspan fill="#0891B2">Core.Lang </tspan><tspan fill="#64748B" opacity="0.35">..........................................................</tspan><tspan fill="#172554" font-weight="600"> Python, TypeScript, PHP</tspan></text></g>
<g opacity="0"><animate attributeName="opacity" from="0" to="1" dur="0.4s" begin="1.34s" fill="freeze"/><animateTransform attributeName="transform" type="translate" values="-8 0;0 0" dur="0.4s" begin="1.34s" fill="freeze"/><text x="470" y="289" font-size="14" textLength="655" lengthAdjust="spacingAndGlyphs" xml:space="preserve"><tspan fill="#0891B2">Core.Frontend </tspan><tspan fill="#64748B" opacity="0.35">..........................................................</tspan><tspan fill="#172554" font-weight="600"> React, TailwindCSS</tspan></text></g>
<g opacity="0"><animate attributeName="opacity" from="0" to="1" dur="0.4s" begin="1.46s" fill="freeze"/><animateTransform attributeName="transform" type="translate" values="-8 0;0 0" dur="0.4s" begin="1.46s" fill="freeze"/><text x="470" y="312" font-size="14" textLength="655" lengthAdjust="spacingAndGlyphs" xml:space="preserve"><tspan fill="#0891B2">Core.Backend </tspan><tspan fill="#64748B" opacity="0.35">..........................................................</tspan><tspan fill="#172554" font-weight="600"> Node.js, Express, F3</tspan></text></g>
<g opacity="0"><animate attributeName="opacity" from="0" to="1" dur="0.4s" begin="1.58s" fill="freeze"/><animateTransform attributeName="transform" type="translate" values="-8 0;0 0" dur="0.4s" begin="1.58s" fill="freeze"/><text x="470" y="335" font-size="14" textLength="655" lengthAdjust="spacingAndGlyphs" xml:space="preserve"><tspan fill="#0891B2">Core.Database </tspan><tspan fill="#64748B" opacity="0.35">..........................................................</tspan><tspan fill="#172554" font-weight="600"> MySQL, MongoDB</tspan></text></g>
<g opacity="0"><animate attributeName="opacity" from="0" to="1" dur="0.4s" begin="1.70s" fill="freeze"/><animateTransform attributeName="transform" type="translate" values="-8 0;0 0" dur="0.4s" begin="1.70s" fill="freeze"/><text x="470" y="358" font-size="14" textLength="655" lengthAdjust="spacingAndGlyphs" xml:space="preserve"><tspan fill="#0891B2">Core.Infra </tspan><tspan fill="#64748B" opacity="0.35">..........................................................</tspan><tspan fill="#172554" font-weight="600"> Docker, GitHub Actions</tspan></text></g>
<g opacity="0"><animate attributeName="opacity" from="0" to="1" dur="0.4s" begin="1.82s" fill="freeze"/><text x="470" y="389" font-size="14" textLength="655" lengthAdjust="spacingAndGlyphs" xml:space="preserve"><tspan fill="#64748B">- Links </tspan><tspan fill="#64748B" opacity="0.35">---------------------------------------------------------------------</tspan></text></g>
<g opacity="0"><animate attributeName="opacity" from="0" to="1" dur="0.4s" begin="1.94s" fill="freeze"/><animateTransform attributeName="transform" type="translate" values="-8 0;0 0" dur="0.4s" begin="1.94s" fill="freeze"/><text x="470" y="412" font-size="14" textLength="655" lengthAdjust="spacingAndGlyphs" xml:space="preserve"><tspan fill="#0891B2">Grid.Mail </tspan><tspan fill="#64748B" opacity="0.35">..........................................................</tspan><tspan fill="#172554" font-weight="600"> ahmad@example.com</tspan></text></g>
<g opacity="0"><animate attributeName="opacity" from="0" to="1" dur="0.4s" begin="2.06s" fill="freeze"/><animateTransform attributeName="transform" type="translate" values="-8 0;0 0" dur="0.4s" begin="2.06s" fill="freeze"/><text x="470" y="435" font-size="14" textLength="655" lengthAdjust="spacingAndGlyphs" xml:space="preserve"><tspan fill="#0891B2">Grid.Portfolio </tspan><tspan fill="#64748B" opacity="0.35">..........................................................</tspan><tspan fill="#172554" font-weight="600"> asobirin.com</tspan></text></g>
<g opacity="0"><animate attributeName="opacity" from="0" to="1" dur="0.4s" begin="2.18s" fill="freeze"/><animateTransform attributeName="transform" type="translate" values="-8 0;0 0" dur="0.4s" begin="2.18s" fill="freeze"/><text x="470" y="458" font-size="14" textLength="655" lengthAdjust="spacingAndGlyphs" xml:space="preserve"><tspan fill="#0891B2">Grid.Linkedin </tspan><tspan fill="#64748B" opacity="0.35">..........................................................</tspan><tspan fill="#172554" font-weight="600"> in/asobirin</tspan></text></g>
<g opacity="0"><animate attributeName="opacity" from="0" to="1" dur="0.4s" begin="2.30s" fill="freeze"/><animateTransform attributeName="transform" type="translate" values="-8 0;0 0" dur="0.4s" begin="2.30s" fill="freeze"/><text x="470" y="481" font-size="14" textLength="655" lengthAdjust="spacingAndGlyphs" xml:space="preserve"><tspan fill="#0891B2">Grid.Github </tspan><tspan fill="#64748B" opacity="0.35">..........................................................</tspan><tspan fill="#172554" font-weight="600"> Asobirin29</tspan></text></g>
<g opacity="0"><animate attributeName="opacity" from="0" to="1" dur="0.4s" begin="2.42s" fill="freeze"/><animateTransform attributeName="transform" type="translate" values="-8 0;0 0" dur="0.4s" begin="2.42s" fill="freeze"/><text x="470" y="504" font-size="14" textLength="655" lengthAdjust="spacingAndGlyphs" xml:space="preserve"><tspan fill="#0891B2">Grid.Facebook </tspan><tspan fill="#64748B" opacity="0.35">..........................................................</tspan><tspan fill="#172554" font-weight="600"> fb.me/asobirin</tspan></text></g>
<g opacity="0"><animate attributeName="opacity" from="0" to="1" dur="0.5s" begin="2.74s" fill="freeze"/>
<text x="470" y="542" font-size="14" fill="#64748B">&#9656; Keep scrolling for more stats &amp; projects &#8595; <tspan fill="#0891B2">&#9608;<animate attributeName="fill-opacity" values="1;0;1" dur="1s" repeatCount="indefinite"/></tspan></text>
</g>
</g>
</g>
<rect x="3" y="3" width="1174" height="604" rx="17" fill="none" stroke="url(#accent)" stroke-width="3" opacity="0.55" filter="url(#glow8)"/>
<rect x="3" y="3" width="1174" height="604" rx="17" fill="none" stroke="url(#accent)" stroke-width="1.6"/>
</svg>